<svg width="128" height="128" version="1.1" xmlns="http://www.w3.org/2000/svg" desc="Created with imagetracer.js version 1.2.6" ><path fill="rgb(247,245,245)" stroke="rgb(247,245,245)" stroke-width="1" opacity="0.6352941176470588" d="M 53.5 0 L 59 0.5 L 53.5 1 L 53.5 0 Z " /><path fill="rgb(247,245,245)" stroke="rgb(247,245,245)" stroke-width="1" opacity="0.6352941176470588" d="M 69.5 0 L 75 0.5 L 69.5 1 L 69.5 0 Z " /><path fill="rgb(247,245,245)" stroke="rgb(247,245,245)" stroke-width="1" opacity="0.6352941176470588" d="M 48.5 1 L 51 1.5 L 48.5 2 L 48.5 1 Z " /><path fill="rgb(247,245,245)" stroke="rgb(247,245,245)" stroke-width="1" opacity="0.6352941176470588" d="M 76.5 1 L 80 1.5 L 76.5 2 L 76.5 1 Z " /><path fill="rgb(247,245,245)" stroke="rgb(247,245,245)" stroke-width="1" opacity="0.6352941176470588" d="M 44.5 2 L 47 2.5 L 42.5 4 L 42.5 3 L 44.5 2 Z " /><path fill="rgb(247,245,245)" stroke="rgb(247,245,245)" stroke-width="1" opacity="0.6352941176470588" d="M 39.5 4 L 41 4.5 Q 25.7 10.2 16 21.5 L 12.5 26 L 15 22.5 L 21.5 15 L 39.5 4 Z " /><path fill="rgb(247,245,245)" stroke="rgb(247,245,245)" stroke-width="1" opacity="0.6352941176470588" d="M 87.5 4 L 91 5.5 L 89.5 6 L 87.5 4 Z " /><path fill="rgb(247,245,245)" stroke="rgb(247,245,245)" stroke-width="1" opacity="0.6352941176470588" d="M 94.5 7 L 101 11.5 L 98.5 10 Q 94.5 9.5 94.5 7 Z " /><path fill="rgb(247,245,245)" stroke="rgb(247,245,245)" stroke-width="1" opacity="0.6352941176470588" d="M 102.5 12 L 113 21.5 Q 120.2 29.3 124 40.5 L 123 40.5 Q 117.7 25.3 106.5 16 L 102.5 12 Z " /><path fill="rgb(247,245,245)" stroke="rgb(247,245,245)" stroke-width="1" opacity="0.6352941176470588" d="M 11.5 27 L 10 29.5 L 7.5 34 L 8 32.5 L 11.5 27 Z " /><path fill="rgb(247,245,245)" stroke="rgb(247,245,245)" stroke-width="1" opacity="0.6352941176470588" d="M 5.5 37 L 6 38.5 L 4.5 41 L 4 39.5 L 5.5 37 Z " /><path fill="rgb(247,245,245)" stroke="rgb(247,245,245)" stroke-width="1" opacity="0.6352941176470588" d="M 124.5 42 L 126 46.5 L 125 46.5 L 124.5 42 Z " /><path fill="rgb(247,245,245)" stroke="rgb(247,245,245)" stroke-width="1" opacity="0.6352941176470588" d="M 1.5 48 L 2 51.5 L 1 51.5 L 1.5 48 Z " /><path fill="rgb(247,245,245)" stroke="rgb(247,245,245)" stroke-width="1" opacity="0.6352941176470588" d="M 126.5 48 L 127 50.5 L 126 50.5 L 126.5 48 Z " /><path fill="rgb(247,245,245)" stroke="rgb(247,245,245)" stroke-width="1" opacity="0.6352941176470588" d="M 0.5 53 L 1 58.5 L 0 58.5 L 0.5 53 Z " /><path fill="rgb(247,245,245)" stroke="rgb(247,245,245)" stroke-width="1" opacity="0.6352941176470588" d="M 127.5 53 L 128 58.5 L 127 58.5 L 127.5 53 Z " /><path fill="rgb(247,245,245)" stroke="rgb(247,245,245)" stroke-width="1" opacity="0.6352941176470588" d="M 0.5 69 L 1 74.5 L 0 74.5 L 0.5 69 Z " /><path fill="rgb(247,245,245)" stroke="rgb(247,245,245)" stroke-width="1" opacity="0.6352941176470588" d="M 127.5 69 L 128 74.5 L 127 74.5 L 127.5 69 Z " /><path fill="rgb(247,245,245)" stroke="rgb(247,245,245)" stroke-width="1" opacity="0.6352941176470588" d="M 126.5 76 L 127 79.5 L 126 79.5 L 126.5 76 Z " /><path fill="rgb(247,245,245)" stroke="rgb(247,245,245)" stroke-width="1" opacity="0.6352941176470588" d="M 1.5 77 L 2 79.5 L 1 79.5 L 1.5 77 Z " /><path fill="rgb(247,245,245)" stroke="rgb(247,245,245)" stroke-width="1" opacity="0.6352941176470588" d="M 2.5 81 L 4 85.5 L 3 85.5 L 2.5 81 Z " /><path fill="rgb(247,245,245)" stroke="rgb(247,245,245)" stroke-width="1" opacity="0.6352941176470588" d="M 4.5 87 Q 10.2 102.3 21.5 112 L 26 115.5 L 22.5 113 L 15 106.5 Q 7.2 98.4 4.5 87 Z " /><path fill="rgb(247,245,245)" stroke="rgb(247,245,245)" stroke-width="1" opacity="0.6352941176470588" d="M 123.5 87 L 124 88.5 L 122.5 91 L 122 89.5 L 123.5 87 Z " /><path fill="rgb(247,245,245)" stroke="rgb(247,245,245)" stroke-width="1" opacity="0.6352941176470588" d="M 120.5 94 L 120 95.5 L 116.5 101 L 118 98.5 L 120.5 94 Z " /><path fill="rgb(247,245,245)" stroke="rgb(247,245,245)" stroke-width="1" opacity="0.6352941176470588" d="M 115.5 102 L 113 105.5 L 106.5 113 Q 98.7 120.2 87.5 124 L 87.5 123 Q 102.7 117.7 112 106.5 L 115.5 102 Z " /><path fill="rgb(247,245,245)" stroke="rgb(247,245,245)" stroke-width="1" opacity="0.6352941176470588" d="M 27.5 116 L 34 120.5 L 32.5 120 Q 27.9 119.3 27.5 116 Z " /><path fill="rgb(247,245,245)" stroke="rgb(247,245,245)" stroke-width="1" opacity="0.6352941176470588" d="M 37.5 122 L 41 123.5 L 39.5 124 L 37.5 122 Z " /><path fill="rgb(247,245,245)" stroke="rgb(247,245,245)" stroke-width="1" opacity="0.6352941176470588" d="M 84.5 124 L 86 124.5 L 81.5 126 L 81.5 125 L 84.5 124 Z " /><path fill="rgb(247,245,245)" stroke="rgb(247,245,245)" stroke-width="1" opacity="0.6352941176470588" d="M 48.5 126 L 52 126.5 L 48.5 127 L 48.5 126 Z " /><path fill="rgb(247,245,245)" stroke="rgb(247,245,245)" stroke-width="1" opacity="0.6352941176470588" d="M 77.5 126 L 80 126.5 L 77.5 127 L 77.5 126 Z " /><path fill="rgb(247,245,245)" stroke="rgb(247,245,245)" stroke-width="1" opacity="0.6352941176470588" d="M 53.5 127 L 59 127.5 L 53.5 128 L 53.5 127 Z " /><path fill="rgb(247,245,245)" stroke="rgb(247,245,245)" stroke-width="1" opacity="0.6352941176470588" d="M 69.5 127 L 75 127.5 L 69.5 128 L 69.5 127 Z " /><path fill="rgb(0,0,0)" stroke="rgb(0,0,0)" stroke-width="1" opacity="0" d="M 0 0 L 53 0.5 Q 28.2 5.2 15 21.5 Q 3.8 33.3 0.5 53 L 0 0 Z " /><path fill="rgb(0,0,0)" stroke="rgb(0,0,0)" stroke-width="1" opacity="0" d="M 75.5 0 L 128 0 L 128 52.5 L 127 52.5 Q 122.7 27.8 106.5 15 L 88.5 4 L 79.5 1 L 75.5 1 L 75.5 0 Z " /><path fill="rgb(0,0,0)" stroke="rgb(0,0,0)" stroke-width="1" opacity="0" d="M 0.5 75 Q 5.2 99.8 21.5 113 Q 33.3 124.2 53 127.5 L 0 128 L 0.5 75 Z " /><path fill="rgb(0,0,0)" stroke="rgb(0,0,0)" stroke-width="1" opacity="0" d="M 127.5 75 L 128 128 L 75 127.5 Q 99.8 122.8 113 106.5 Q 124.2 94.7 127.5 75 Z " /><path fill="rgb(255,254,254)" stroke="rgb(255,254,254)" stroke-width="1" opacity="1" d="M 80.5 30 L 79.5 32 L 80.5 30 Z " /><path fill="rgb(255,254,254)" stroke="rgb(255,254,254)" stroke-width="1" opacity="1" d="M 50.5 33 L 51.5 35 L 50.5 33 Z " /><path fill="rgb(255,254,254)" stroke="rgb(255,254,254)" stroke-width="1" opacity="1" d="M 33.5 35 L 34.5 37 L 33.5 35 Z " /><path fill="rgb(255,254,254)" stroke="rgb(255,254,254)" stroke-width="1" opacity="1" d="M 76.5 35 L 75.5 37 L 76.5 35 Z " /><path fill="rgb(255,254,254)" stroke="rgb(255,254,254)" stroke-width="1" opacity="1" d="M 94.5 35 L 93.5 37 L 94.5 35 Z " /><path fill="rgb(255,254,254)" stroke="rgb(255,254,254)" stroke-width="1" opacity="1" d="M 53.5 37 L 54.5 39 L 53.5 37 Z " /><path fill="rgb(255,254,254)" stroke="rgb(255,254,254)" stroke-width="1" opacity="1" d="M 37.5 40 L 38.5 42 L 37.5 40 Z " /><path fill="rgb(255,254,254)" stroke="rgb(255,254,254)" stroke-width="1" opacity="1" d="M 72.5 40 L 71.5 42 L 72.5 40 Z " /><path fill="rgb(255,254,254)" stroke="rgb(255,254,254)" stroke-width="1" opacity="1" d="M 90.5 40 L 89.5 42 L 90.5 40 Z " /><path fill="rgb(255,254,254)" stroke="rgb(255,254,254)" stroke-width="1" opacity="1" d="M 57.5 42 L 58.5 44 L 57.5 42 Z " /><path fill="rgb(255,254,254)" stroke="rgb(255,254,254)" stroke-width="1" opacity="1" d="M 41.5 45 L 42.5 47 L 41.5 45 Z " /><path fill="rgb(255,254,254)" stroke="rgb(255,254,254)" stroke-width="1" opacity="1" d="M 68.5 45 L 67.5 47 L 68.5 45 Z " /><path fill="rgb(255,254,254)" stroke="rgb(255,254,254)" stroke-width="1" opacity="1" d="M 86.5 45 L 85.5 47 L 86.5 45 Z " /><path fill="rgb(255,254,254)" stroke="rgb(255,254,254)" stroke-width="1" opacity="1" d="M 60.5 46 L 61.5 48 L 60.5 46 Z " /><path fill="rgb(255,254,254)" stroke="rgb(255,254,254)" stroke-width="1" opacity="1" d="M 44.5 49 L 46.5 52 L 44.5 49 Z " /><path fill="rgb(255,254,254)" stroke="rgb(255,254,254)" stroke-width="1" opacity="1" d="M 82.5 50 L 81.5 52 L 82.5 50 Z " /><path fill="rgb(255,254,254)" stroke="rgb(255,254,254)" stroke-width="1" opacity="1" d="M 48.5 54 L 50.5 57 L 48.5 54 Z " /><path fill="rgb(255,254,254)" stroke="rgb(255,254,254)" stroke-width="1" opacity="1" d="M 79.5 54 L 77.5 57 L 79.5 54 Z " /><path fill="rgb(255,254,254)" stroke="rgb(255,254,254)" stroke-width="1" opacity="1" d="M 52.5 59 L 54.5 62 L 52.5 59 Z " /><path fill="rgb(255,254,254)" stroke="rgb(255,254,254)" stroke-width="1" opacity="1" d="M 75.5 59 L 74.5 61 L 75.5 59 Z " /><path fill="rgb(255,254,254)" stroke="rgb(255,254,254)" stroke-width="1" opacity="1" d="M 74.5 63 L 75.5 65 L 74.5 63 Z " /><path fill="rgb(255,254,254)" stroke="rgb(255,254,254)" stroke-width="1" opacity="1" d="M 50.5 67 L 49.5 69 L 50.5 67 Z " /><path fill="rgb(255,254,254)" stroke="rgb(255,254,254)" stroke-width="1" opacity="1" d="M 77.5 67 L 78.5 69 L 77.5 67 Z " /><path fill="rgb(255,254,254)" stroke="rgb(255,254,254)" stroke-width="1" opacity="1" d="M 47.5 71 L 46.5 73 L 47.5 71 Z " /><path fill="rgb(255,254,254)" stroke="rgb(255,254,254)" stroke-width="1" opacity="1" d="M 80.5 71 L 81.5 73 L 80.5 71 Z " /><path fill="rgb(255,254,254)" stroke="rgb(255,254,254)" stroke-width="1" opacity="1" d="M 62.5 74 L 61.5 76 L 62.5 74 Z " /><path fill="rgb(255,254,254)" stroke="rgb(255,254,254)" stroke-width="1" opacity="1" d="M 65.5 74 L 66.5 76 L 65.5 74 Z " /><path fill="rgb(255,254,254)" stroke="rgb(255,254,254)" stroke-width="1" opacity="1" d="M 83.5 75 L 85.5 78 L 83.5 75 Z " /><path fill="rgb(255,254,254)" stroke="rgb(255,254,254)" stroke-width="1" opacity="1" d="M 43.5 76 L 42.5 78 L 43.5 76 Z " /><path fill="rgb(255,254,254)" stroke="rgb(255,254,254)" stroke-width="1" opacity="1" d="M 59.5 78 L 58.5 80 L 59.5 78 Z " /><path fill="rgb(255,254,254)" stroke="rgb(255,254,254)" stroke-width="1" opacity="1" d="M 40.5 80 L 39.5 82 L 40.5 80 Z " /><path fill="rgb(255,254,254)" stroke="rgb(255,254,254)" stroke-width="1" opacity="1" d="M 87.5 80 L 88.5 82 L 87.5 80 Z " /><path fill="rgb(255,254,254)" stroke="rgb(255,254,254)" stroke-width="1" opacity="1" d="M 70.5 81 L 71.5 83 L 70.5 81 Z " /><path fill="rgb(255,254,254)" stroke="rgb(255,254,254)" stroke-width="1" opacity="1" d="M 56.5 82 L 55.5 84 L 56.5 82 Z " /><path fill="rgb(255,254,254)" stroke="rgb(255,254,254)" stroke-width="1" opacity="1" d="M 90.5 84 L 96 90.5 L 92 87.5 L 90.5 84 Z " /><path fill="rgb(255,254,254)" stroke="rgb(255,254,254)" stroke-width="1" opacity="1" d="M 73.5 85 L 74.5 87 L 73.5 85 Z " /><path fill="rgb(255,254,254)" stroke="rgb(255,254,254)" stroke-width="1" opacity="1" d="M 53.5 86 L 52.5 88 L 53.5 86 Z " /><path fill="rgb(255,254,254)" stroke="rgb(255,254,254)" stroke-width="1" opacity="1" d="M 75.5 88 L 77.5 91 L 75.5 88 Z " /><path fill="rgb(255,254,254)" stroke="rgb(255,254,254)" stroke-width="1" opacity="1" d="M 33.5 89 L 32.5 91 L 33.5 89 Z " /><path fill="rgb(255,254,254)" stroke="rgb(255,254,254)" stroke-width="1" opacity="1" d="M 50.5 90 L 49.5 92 L 50.5 90 Z " /><path fill="rgb(255,254,254)" stroke="rgb(255,254,254)" stroke-width="1" opacity="1" d="M 78.5 92 L 79.5 94 L 78.5 92 Z " /><path fill="rgb(255,254,254)" stroke="rgb(255,254,254)" stroke-width="1" opacity="1" d="M 96.5 92 L 98.5 95 L 96.5 92 Z " /><path fill="rgb(255,254,254)" stroke="rgb(255,254,254)" stroke-width="1" opacity="1" d="M 30.5 93 L 29.5 95 L 30.5 93 Z " /><path fill="rgb(255,254,254)" stroke="rgb(255,254,254)" stroke-width="1" opacity="1" d="M 47.5 94 L 46.5 96 L 47.5 94 Z " /><path fill="rgb(255,254,254)" stroke="rgb(255,254,254)" stroke-width="1" opacity="1" d="M 80.5 95 L 82.5 97 L 98.5 97 Q 99.8 94.8 101 97.5 L 82.5 98 L 80.5 95 Z " /><path fill="rgb(255,255,255)" stroke="rgb(255,255,255)" stroke-width="1" opacity="1" d="M 59.5 0 Q 78.9 -0.4 91.5 6 Q 103.5 12 112 21.5 Q 119.5 30 124 41.5 L 127 51.5 L 128 68.5 L 127 69.5 L 126 80.5 L 122 91.5 Q 116.1 103.5 106.5 112 Q 98 119.5 86.5 124 L 76.5 127 L 59.5 128 L 58.5 127 L 47.5 126 L 36.5 122 Q 24.4 116.1 16 106.5 Q 8.5 98 4 86.5 L 1 76.5 L 0 59.5 L 1 58.5 L 2 47.5 L 6 36.5 Q 12 24.4 21.5 16 Q 30 8.5 41.5 4 L 59.5 0 Z M 30 30 L 54 62 L 53 65 L 27 98 L 45 98 L 63 75 Q 62 72 65 73 L 83 98 L 101 98 L 74 63 L 98 32 L 98 30 L 81 30 L 67 48 L 64 50 L 49 32 L 49 30 L 30 30 Z " /><path fill="rgb(0,0,0)" stroke="rgb(0,0,0)" stroke-width="1" opacity="1" d="M 32 31 L 47.5 31 L 49 32.5 L 63 52 Q 65.7 53.1 65 50.5 L 81.5 31 L 95.5 31 L 96 32.5 L 89.5 40 L 65.5 59 L 61 61 L 60.5 63 L 59 62.5 L 56.5 66 L 53.5 68 L 50 70 Q 51.1 72.7 48.5 72 L 51 68.5 L 55 63.5 L 55 60.5 L 32 31 Z " /><path fill="rgb(7,3,3)" stroke="rgb(7,3,3)" stroke-width="1" opacity="1" d="M 88.5 40 L 89 41.5 L 66.5 68 L 29.5 97 L 31 94.5 L 48.5 72 L 51.5 70 L 55 68 Q 53.9 65.3 56.5 66 L 59.5 62 L 61 62.5 Q 60.3 60.3 62.5 61 L 73 52.5 L 72.5 51 Q 74 53.5 75.5 50 L 88.5 40 Z " /><path fill="rgb(36,18,18)" stroke="rgb(36,18,18)" stroke-width="1" opacity="1" d="M 49.5 33 L 51.5 36 L 49.5 33 Z " /><path fill="rgb(36,18,18)" stroke="rgb(36,18,18)" stroke-width="1" opacity="1" d="M 33.5 34 L 35.5 37 L 33.5 34 Z " /><path fill="rgb(36,18,18)" stroke="rgb(36,18,18)" stroke-width="1" opacity="1" d="M 94.5 34 L 92.5 37 L 94.5 34 Z " /><path fill="rgb(36,18,18)" stroke="rgb(36,18,18)" stroke-width="1" opacity="1" d="M 77.5 35 L 76.5 37 L 77.5 35 Z " /><path fill="rgb(36,18,18)" stroke="rgb(36,18,18)" stroke-width="1" opacity="1" d="M 53.5 38 L 54.5 40 L 53.5 38 Z " /><path fill="rgb(36,18,18)" stroke="rgb(36,18,18)" stroke-width="1" opacity="1" d="M 37.5 39 L 39.5 42 L 37.5 39 Z " /><path fill="rgb(36,18,18)" stroke="rgb(36,18,18)" stroke-width="1" opacity="1" d="M 90.5 39 L 89.5 41 L 90.5 39 Z " /><path fill="rgb(36,18,18)" stroke="rgb(36,18,18)" stroke-width="1" opacity="1" d="M 73.5 40 L 71.5 43 L 73.5 40 Z " /><path fill="rgb(36,18,18)" stroke="rgb(36,18,18)" stroke-width="1" opacity="1" d="M 56.5 42 L 57.5 44 L 56.5 42 Z " /><path fill="rgb(36,18,18)" stroke="rgb(36,18,18)" stroke-width="1" opacity="1" d="M 41.5 44 L 42.5 46 L 41.5 44 Z " /><path fill="rgb(36,18,18)" stroke="rgb(36,18,18)" stroke-width="1" opacity="1" d="M 86.5 44 L 85.5 46 L 86.5 44 Z " /><path fill="rgb(36,18,18)" stroke="rgb(36,18,18)" stroke-width="1" opacity="1" d="M 68.5 46 L 67.5 48 L 68.5 46 Z " /><path fill="rgb(36,18,18)" stroke="rgb(36,18,18)" stroke-width="1" opacity="1" d="M 60.5 47 L 61.5 49 L 60.5 47 Z " /><path fill="rgb(36,18,18)" stroke="rgb(36,18,18)" stroke-width="1" opacity="1" d="M 45.5 49 L 46.5 51 L 45.5 49 Z " /><path fill="rgb(36,18,18)" stroke="rgb(36,18,18)" stroke-width="1" opacity="1" d="M 82.5 49 L 81.5 51 L 82.5 49 Z " /><path fill="rgb(36,18,18)" stroke="rgb(36,18,18)" stroke-width="1" opacity="1" d="M 49.5 54 L 50.5 56 L 49.5 54 Z " /><path fill="rgb(36,18,18)" stroke="rgb(36,18,18)" stroke-width="1" opacity="1" d="M 78.5 54 L 77.5 56 L 78.5 54 Z " /><path fill="rgb(36,18,18)" stroke="rgb(36,18,18)" stroke-width="1" opacity="1" d="M 53.5 59 L 54.5 61 L 53.5 59 Z " /><path fill="rgb(36,18,18)" stroke="rgb(36,18,18)" stroke-width="1" opacity="1" d="M 74.5 59 L 73.5 61 L 74.5 59 Z " /><path fill="rgb(36,18,18)" stroke="rgb(36,18,18)" stroke-width="1" opacity="1" d="M 72.5 62 L 83 76.5 L 73.5 84 L 64.5 72 L 62 73.5 L 44.5 97 L 30.5 97 L 29 95.5 L 32.5 94 L 72.5 62 Z " /><path fill="rgb(36,18,18)" stroke="rgb(36,18,18)" stroke-width="1" opacity="1" d="M 54.5 63 L 53.5 65 L 54.5 63 Z " /><path fill="rgb(36,18,18)" stroke="rgb(36,18,18)" stroke-width="1" opacity="1" d="M 47.5 72 L 46.5 74 L 47.5 72 Z " /><path fill="rgb(36,18,18)" stroke="rgb(36,18,18)" stroke-width="1" opacity="1" d="M 44.5 76 L 43.5 78 L 44.5 76 Z " /><path fill="rgb(36,18,18)" stroke="rgb(36,18,18)" stroke-width="1" opacity="1" d="M 40.5 81 L 39.5 83 L 40.5 81 Z " /><path fill="rgb(36,18,18)" stroke="rgb(36,18,18)" stroke-width="1" opacity="1" d="M 37.5 85 L 36.5 87 L 37.5 85 Z " /><path fill="rgb(157,94,92)" stroke="rgb(157,94,92)" stroke-width="1" opacity="1" d="M 30.5 30 L 47.5 30 L 50 32.5 L 47.5 31 L 30.5 31 L 30.5 30 Z " /><path fill="rgb(157,94,92)" stroke="rgb(157,94,92)" stroke-width="1" opacity="1" d="M 81.5 30 L 98 30.5 L 81.5 31 L 81.5 30 Z " /><path fill="rgb(157,94,92)" stroke="rgb(157,94,92)" stroke-width="1" opacity="1" d="M 31.5 32 L 32.5 34 L 31.5 32 Z " /><path fill="rgb(157,94,92)" stroke="rgb(157,94,92)" stroke-width="1" opacity="1" d="M 79.5 32 L 77.5 35 L 79.5 32 Z " /><path fill="rgb(157,94,92)" stroke="rgb(157,94,92)" stroke-width="1" opacity="1" d="M 96.5 32 L 95.5 34 L 96.5 32 Z " /><path fill="rgb(157,94,92)" stroke="rgb(157,94,92)" stroke-width="1" opacity="1" d="M 35.5 37 L 36.5 39 L 35.5 37 Z " /><path fill="rgb(157,94,92)" stroke="rgb(157,94,92)" stroke-width="1" opacity="1" d="M 75.5 37 L 73.5 40 L 75.5 37 Z " /><path fill="rgb(157,94,92)" stroke="rgb(157,94,92)" stroke-width="1" opacity="1" d="M 92.5 37 L 91.5 39 L 92.5 37 Z " /><path fill="rgb(157,94,92)" stroke="rgb(157,94,92)" stroke-width="1" opacity="1" d="M 55.5 40 L 56.5 42 L 55.5 40 Z " /><path fill="rgb(157,94,92)" stroke="rgb(157,94,92)" stroke-width="1" opacity="1" d="M 39.5 42 L 40.5 44 L 39.5 42 Z " /><path fill="rgb(157,94,92)" stroke="rgb(157,94,92)" stroke-width="1" opacity="1" d="M 88.5 42 L 87.5 44 L 88.5 42 Z " /><path fill="rgb(157,94,92)" stroke="rgb(157,94,92)" stroke-width="1" opacity="1" d="M 70.5 43 L 69.5 45 L 70.5 43 Z " /><path fill="rgb(157,94,92)" stroke="rgb(157,94,92)" stroke-width="1" opacity="1" d="M 58.5 44 L 59.5 46 L 58.5 44 Z " /><path fill="rgb(157,94,92)" stroke="rgb(157,94,92)" stroke-width="1" opacity="1" d="M 43.5 47 L 44.5 49 L 43.5 47 Z " /><path fill="rgb(157,94,92)" stroke="rgb(157,94,92)" stroke-width="1" opacity="1" d="M 84.5 47 L 83.5 49 L 84.5 47 Z " /><path fill="rgb(157,94,92)" stroke="rgb(157,94,92)" stroke-width="1" opacity="1" d="M 66.5 48 L 65.5 50 L 66.5 48 Z " /><path fill="rgb(157,94,92)" stroke="rgb(157,94,92)" stroke-width="1" opacity="1" d="M 47.5 52 L 48.5 54 L 47.5 52 Z " /><path fill="rgb(157,94,92)" stroke="rgb(157,94,92)" stroke-width="1" opacity="1" d="M 80.5 52 L 79.5 54 L 80.5 52 Z " /><path fill="rgb(157,94,92)" stroke="rgb(157,94,92)" stroke-width="1" opacity="1" d="M 51.5 57 L 52.5 59 L 51.5 57 Z " /><path fill="rgb(157,94,92)" stroke="rgb(157,94,92)" stroke-width="1" opacity="1" d="M 76.5 57 L 75.5 59 L 76.5 57 Z " /><path fill="rgb(157,94,92)" stroke="rgb(157,94,92)" stroke-width="1" opacity="1" d="M 52.5 65 L 51.5 67 L 52.5 65 Z " /><path fill="rgb(157,94,92)" stroke="rgb(157,94,92)" stroke-width="1" opacity="1" d="M 75.5 65 L 76.5 67 L 75.5 65 Z " /><path fill="rgb(157,94,92)" stroke="rgb(157,94,92)" stroke-width="1" opacity="1" d="M 49.5 69 L 48.5 71 L 49.5 69 Z " /><path fill="rgb(157,94,92)" stroke="rgb(157,94,92)" stroke-width="1" opacity="1" d="M 78.5 69 L 79.5 71 L 78.5 69 Z " /><path fill="rgb(157,94,92)" stroke="rgb(157,94,92)" stroke-width="1" opacity="1" d="M 63.5 72 L 66 73.5 L 64.5 73 L 62.5 74 L 63.5 72 Z " /><path fill="rgb(157,94,92)" stroke="rgb(157,94,92)" stroke-width="1" opacity="1" d="M 81.5 73 L 82.5 75 L 81.5 73 Z " /><path fill="rgb(157,94,92)" stroke="rgb(157,94,92)" stroke-width="1" opacity="1" d="M 45.5 74 L 44.5 76 L 45.5 74 Z " /><path fill="rgb(157,94,92)" stroke="rgb(157,94,92)" stroke-width="1" opacity="1" d="M 60.5 76 L 59.5 78 L 60.5 76 Z " /><path fill="rgb(157,94,92)" stroke="rgb(157,94,92)" stroke-width="1" opacity="1" d="M 67.5 76 L 68.5 78 L 67.5 76 Z " /><path fill="rgb(157,94,92)" stroke="rgb(157,94,92)" stroke-width="1" opacity="1" d="M 83.5 76 L 99 97 L 82.5 97 L 80 94.5 L 72 83.5 Q 73.8 85.1 75.5 82 L 83.5 76 Z " /><path fill="rgb(157,94,92)" stroke="rgb(157,94,92)" stroke-width="1" opacity="1" d="M 42.5 78 L 41.5 80 L 42.5 78 Z " /><path fill="rgb(157,94,92)" stroke="rgb(157,94,92)" stroke-width="1" opacity="1" d="M 69.5 79 L 71.5 82 L 69.5 79 Z " /><path fill="rgb(157,94,92)" stroke="rgb(157,94,92)" stroke-width="1" opacity="1" d="M 57.5 80 L 56.5 82 L 57.5 80 Z " /><path fill="rgb(157,94,92)" stroke="rgb(157,94,92)" stroke-width="1" opacity="1" d="M 38.5 83 L 37.5 85 L 38.5 83 Z " /><path fill="rgb(157,94,92)" stroke="rgb(157,94,92)" stroke-width="1" opacity="1" d="M 54.5 84 L 53.5 86 L 54.5 84 Z " /><path fill="rgb(157,94,92)" stroke="rgb(157,94,92)" stroke-width="1" opacity="1" d="M 35.5 87 L 34.5 89 L 35.5 87 Z " /><path fill="rgb(157,94,92)" stroke="rgb(157,94,92)" stroke-width="1" opacity="1" d="M 51.5 88 L 50.5 90 L 51.5 88 Z " /><path fill="rgb(157,94,92)" stroke="rgb(157,94,92)" stroke-width="1" opacity="1" d="M 32.5 91 L 31.5 93 L 32.5 91 Z " /><path fill="rgb(157,94,92)" stroke="rgb(157,94,92)" stroke-width="1" opacity="1" d="M 48.5 92 L 47.5 94 L 48.5 92 Z " /><path fill="rgb(157,94,92)" stroke="rgb(157,94,92)" stroke-width="1" opacity="1" d="M 28.5 96 L 29.5 97 L 44.5 97 L 46 96.5 L 44.5 98 L 28 98 L 28.5 96 Z " /></svg>