<svg width="100" height="100" version="1.1" xmlns="http://www.w3.org/2000/svg" desc="Created with imagetracer.js version 1.2.6" ><path fill="rgb(214,214,214)" stroke="rgb(214,214,214)" stroke-width="1" opacity="1" d="M 24 21 L 37 21.5 L 25 22.5 L 25.5 24 L 24 21 Z " /><path fill="rgb(214,214,214)" stroke="rgb(214,214,214)" stroke-width="1" opacity="1" d="M 63.5 21 L 75.5 21 L 76 22.5 L 74 23.5 L 74.5 22 L 63.5 22 L 63.5 21 Z " /><path fill="rgb(214,214,214)" stroke="rgb(214,214,214)" stroke-width="1" opacity="1" d="M 38.5 23 L 40.5 26 L 38.5 23 Z " /><path fill="rgb(214,214,214)" stroke="rgb(214,214,214)" stroke-width="1" opacity="1" d="M 61.5 23 L 59.5 26 L 61.5 23 Z " /><path fill="rgb(214,214,214)" stroke="rgb(214,214,214)" stroke-width="1" opacity="1" d="M 26.5 25 L 28.5 28 L 26.5 25 Z " /><path fill="rgb(214,214,214)" stroke="rgb(214,214,214)" stroke-width="1" opacity="1" d="M 73.5 25 L 71.5 28 L 73.5 25 Z " /><path fill="rgb(214,214,214)" stroke="rgb(214,214,214)" stroke-width="1" opacity="1" d="M 41.5 27 L 43.5 30 L 41.5 27 Z " /><path fill="rgb(214,214,214)" stroke="rgb(214,214,214)" stroke-width="1" opacity="1" d="M 58.5 27 L 56.5 30 L 58.5 27 Z " /><path fill="rgb(214,214,214)" stroke="rgb(214,214,214)" stroke-width="1" opacity="1" d="M 30.5 30 L 32.5 33 L 30.5 30 Z " /><path fill="rgb(214,214,214)" stroke="rgb(214,214,214)" stroke-width="1" opacity="1" d="M 69.5 30 L 67.5 33 L 69.5 30 Z " /><path fill="rgb(214,214,214)" stroke="rgb(214,214,214)" stroke-width="1" opacity="1" d="M 44.5 31 L 46.5 34 L 44.5 31 Z " /><path fill="rgb(214,214,214)" stroke="rgb(214,214,214)" stroke-width="1" opacity="1" d="M 55.5 31 L 53.5 34 L 55.5 31 Z " /><path fill="rgb(214,214,214)" stroke="rgb(214,214,214)" stroke-width="1" opacity="1" d="M 33.5 34 L 35.5 37 L 33.5 34 Z " /><path fill="rgb(214,214,214)" stroke="rgb(214,214,214)" stroke-width="1" opacity="1" d="M 66.5 34 L 64.5 37 L 66.5 34 Z " /><path fill="rgb(214,214,214)" stroke="rgb(214,214,214)" stroke-width="1" opacity="1" d="M 47.5 35 L 50.5 37 L 53 35.5 L 49.5 38 L 47.5 35 Z " /><path fill="rgb(214,214,214)" stroke="rgb(214,214,214)" stroke-width="1" opacity="1" d="M 37.5 39 L 39.5 42 L 37.5 39 Z " /><path fill="rgb(214,214,214)" stroke="rgb(214,214,214)" stroke-width="1" opacity="1" d="M 62.5 39 L 60.5 42 L 62.5 39 Z " /><path fill="rgb(214,214,214)" stroke="rgb(214,214,214)" stroke-width="1" opacity="1" d="M 40.5 43 L 42.5 46 L 40.5 43 Z " /><path fill="rgb(214,214,214)" stroke="rgb(214,214,214)" stroke-width="1" opacity="1" d="M 59.5 43 L 57.5 46 L 59.5 43 Z " /><path fill="rgb(214,214,214)" stroke="rgb(214,214,214)" stroke-width="1" opacity="1" d="M 42.5 47 L 41.5 49 L 42.5 47 Z " /><path fill="rgb(214,214,214)" stroke="rgb(214,214,214)" stroke-width="1" opacity="1" d="M 57.5 47 L 58.5 49 L 57.5 47 Z " /><path fill="rgb(214,214,214)" stroke="rgb(214,214,214)" stroke-width="1" opacity="1" d="M 39.5 51 L 38.5 53 L 39.5 51 Z " /><path fill="rgb(214,214,214)" stroke="rgb(214,214,214)" stroke-width="1" opacity="1" d="M 60.5 51 L 61.5 53 L 60.5 51 Z " /><path fill="rgb(214,214,214)" stroke="rgb(214,214,214)" stroke-width="1" opacity="1" d="M 36.5 55 L 35.5 57 L 36.5 55 Z " /><path fill="rgb(214,214,214)" stroke="rgb(214,214,214)" stroke-width="1" opacity="1" d="M 49.5 55 L 52 56.5 L 50.5 56 L 48.5 57 L 49.5 55 Z " /><path fill="rgb(214,214,214)" stroke="rgb(214,214,214)" stroke-width="1" opacity="1" d="M 63.5 55 L 64.5 57 L 63.5 55 Z " /><path fill="rgb(214,214,214)" stroke="rgb(214,214,214)" stroke-width="1" opacity="1" d="M 47.5 58 L 46.5 60 L 47.5 58 Z " /><path fill="rgb(214,214,214)" stroke="rgb(214,214,214)" stroke-width="1" opacity="1" d="M 52.5 58 L 53.5 60 L 52.5 58 Z " /><path fill="rgb(214,214,214)" stroke="rgb(214,214,214)" stroke-width="1" opacity="1" d="M 33.5 59 L 32.5 61 L 33.5 59 Z " /><path fill="rgb(214,214,214)" stroke="rgb(214,214,214)" stroke-width="1" opacity="1" d="M 66.5 59 L 67.5 61 L 66.5 59 Z " /><path fill="rgb(214,214,214)" stroke="rgb(214,214,214)" stroke-width="1" opacity="1" d="M 44.5 62 L 43.5 64 L 44.5 62 Z " /><path fill="rgb(214,214,214)" stroke="rgb(214,214,214)" stroke-width="1" opacity="1" d="M 55.5 62 L 56.5 64 L 55.5 62 Z " /><path fill="rgb(214,214,214)" stroke="rgb(214,214,214)" stroke-width="1" opacity="1" d="M 30.5 63 L 29.5 65 L 30.5 63 Z " /><path fill="rgb(214,214,214)" stroke="rgb(214,214,214)" stroke-width="1" opacity="1" d="M 69.5 63 L 70.5 65 L 69.5 63 Z " /><path fill="rgb(214,214,214)" stroke="rgb(214,214,214)" stroke-width="1" opacity="1" d="M 42.5 65 L 41.5 67 L 42.5 65 Z " /><path fill="rgb(214,214,214)" stroke="rgb(214,214,214)" stroke-width="1" opacity="1" d="M 57.5 65 L 58.5 67 L 57.5 65 Z " /><path fill="rgb(214,214,214)" stroke="rgb(214,214,214)" stroke-width="1" opacity="1" d="M 27.5 67 L 26.5 69 L 27.5 67 Z " /><path fill="rgb(214,214,214)" stroke="rgb(214,214,214)" stroke-width="1" opacity="1" d="M 72.5 67 L 73.5 69 L 72.5 67 Z " /><path fill="rgb(214,214,214)" stroke="rgb(214,214,214)" stroke-width="1" opacity="1" d="M 40.5 68 L 39.5 70 L 40.5 68 Z " /><path fill="rgb(214,214,214)" stroke="rgb(214,214,214)" stroke-width="1" opacity="1" d="M 24.5 71 L 23.5 73 L 24.5 71 Z " /><path fill="rgb(214,214,214)" stroke="rgb(214,214,214)" stroke-width="1" opacity="1" d="M 75.5 71 L 77.5 74 L 75.5 71 Z " /><path fill="rgb(214,214,214)" stroke="rgb(214,214,214)" stroke-width="1" opacity="1" d="M 37.5 72 L 36.5 74 L 37.5 72 Z " /><path fill="rgb(214,214,214)" stroke="rgb(214,214,214)" stroke-width="1" opacity="1" d="M 62.5 72 L 63.5 74 L 62.5 72 Z " /><path fill="rgb(255,255,255)" stroke="rgb(255,255,255)" stroke-width="1" opacity="0.9921568627450981" d="M 12.5 0 L 19 0.5 L 13.5 1 L 5 6.5 Q 0.4 10.4 0.5 19 L 0 12.5 L 8.5 2 L 12.5 0 Z " /><path fill="rgb(255,255,255)" stroke="rgb(255,255,255)" stroke-width="1" opacity="0.9921568627450981" d="M 81.5 0 Q 93.9 0.1 98 8.5 Q 101 11.5 100 18.5 L 99 18.5 L 99 13.5 L 93.5 5 L 86.5 1 L 81.5 1 L 81.5 0 Z " /><path fill="rgb(255,255,255)" stroke="rgb(255,255,255)" stroke-width="1" opacity="0.9921568627450981" d="M 0.5 81 L 1 86.5 L 6.5 95 Q 10.4 99.6 19 99.5 L 12.5 100 L 2 91.5 Q -1.4 88 0.5 81 Z " /><path fill="rgb(255,255,255)" stroke="rgb(255,255,255)" stroke-width="1" opacity="0.9921568627450981" d="M 99.5 81 L 100 87.5 L 91.5 98 Q 88.5 101 81.5 100 L 81.5 99 L 86.5 99 L 95 93.5 Q 99.6 89.6 99.5 81 Z " /><path fill="rgb(255,255,255)" stroke="rgb(255,255,255)" stroke-width="1" opacity="1" d="M 19.5 0 L 80.5 0 Q 81.8 2.3 86.5 1 L 95 6.5 L 99 13.5 Q 97.7 18.2 100 19.5 L 100 80.5 Q 97.7 81.8 99 86.5 L 93.5 95 L 86.5 99 Q 81.8 97.7 80.5 100 L 19.5 100 Q 18.2 97.7 13.5 99 L 5 93.5 L 1 86.5 Q 2.3 81.8 0 80.5 L 0 19.5 Q 2.3 18.2 1 13.5 L 6.5 5 L 13.5 1 Q 18.2 2.3 19.5 0 Z M 24 21 L 26 26 L 43 47 L 22 75 L 36 75 L 48 58 L 51 56 L 62 73 L 65 75 L 78 75 L 57 47 L 76 23 L 76 21 L 64 21 L 53 35 L 50 37 L 41 26 L 37 21 L 24 21 Z " /><path fill="rgb(0,0,0)" stroke="rgb(0,0,0)" stroke-width="1" opacity="0" d="M 0 0 L 12 0.5 Q 5.2 2.7 2 8.5 L 0.5 12 L 0 0 Z " /><path fill="rgb(0,0,0)" stroke="rgb(0,0,0)" stroke-width="1" opacity="0" d="M 88.5 0 L 100 0 L 100 11.5 L 99 11.5 Q 97.4 4.6 91.5 2 Q 87.8 1.7 88.5 0 Z " /><path fill="rgb(0,0,0)" stroke="rgb(0,0,0)" stroke-width="1" opacity="0" d="M 0.5 88 Q 2.7 94.8 8.5 98 L 12 99.5 L 0 100 L 0.5 88 Z " /><path fill="rgb(0,0,0)" stroke="rgb(0,0,0)" stroke-width="1" opacity="0" d="M 99.5 88 L 100 100 L 88 99.5 Q 94.8 97.3 98 91.5 L 99.5 88 Z " /><path fill="rgb(25,25,25)" stroke="rgb(25,25,25)" stroke-width="1" opacity="1" d="M 26.5 24 L 28.5 27 L 26.5 24 Z " /><path fill="rgb(25,25,25)" stroke="rgb(25,25,25)" stroke-width="1" opacity="1" d="M 61.5 24 L 59.5 27 L 61.5 24 Z " /><path fill="rgb(25,25,25)" stroke="rgb(25,25,25)" stroke-width="1" opacity="1" d="M 73.5 24 L 71.5 27 L 73.5 24 Z " /><path fill="rgb(25,25,25)" stroke="rgb(25,25,25)" stroke-width="1" opacity="1" d="M 39.5 25 L 40.5 27 L 39.5 25 Z " /><path fill="rgb(25,25,25)" stroke="rgb(25,25,25)" stroke-width="1" opacity="1" d="M 29.5 28 L 31.5 31 L 29.5 28 Z " /><path fill="rgb(25,25,25)" stroke="rgb(25,25,25)" stroke-width="1" opacity="1" d="M 70.5 28 L 68.5 31 L 70.5 28 Z " /><path fill="rgb(25,25,25)" stroke="rgb(25,25,25)" stroke-width="1" opacity="1" d="M 42.5 29 L 43.5 31 L 42.5 29 Z " /><path fill="rgb(25,25,25)" stroke="rgb(25,25,25)" stroke-width="1" opacity="1" d="M 57.5 29 L 56.5 31 L 57.5 29 Z " /><path fill="rgb(25,25,25)" stroke="rgb(25,25,25)" stroke-width="1" opacity="1" d="M 33.5 33 L 35.5 36 L 33.5 33 Z " /><path fill="rgb(25,25,25)" stroke="rgb(25,25,25)" stroke-width="1" opacity="1" d="M 45.5 33 L 46.5 35 L 45.5 33 Z " /><path fill="rgb(25,25,25)" stroke="rgb(25,25,25)" stroke-width="1" opacity="1" d="M 54.5 33 L 53.5 35 L 54.5 33 Z " /><path fill="rgb(25,25,25)" stroke="rgb(25,25,25)" stroke-width="1" opacity="1" d="M 66.5 33 L 64.5 36 L 66.5 33 Z " /><path fill="rgb(25,25,25)" stroke="rgb(25,25,25)" stroke-width="1" opacity="1" d="M 36.5 37 L 38.5 40 L 36.5 37 Z " /><path fill="rgb(25,25,25)" stroke="rgb(25,25,25)" stroke-width="1" opacity="1" d="M 48.5 37 L 50.5 38 L 52 37.5 L 49.5 39 L 48.5 37 Z " /><path fill="rgb(25,25,25)" stroke="rgb(25,25,25)" stroke-width="1" opacity="1" d="M 63.5 37 L 61.5 40 L 63.5 37 Z " /><path fill="rgb(25,25,25)" stroke="rgb(25,25,25)" stroke-width="1" opacity="1" d="M 40.5 42 L 42.5 45 L 40.5 42 Z " /><path fill="rgb(25,25,25)" stroke="rgb(25,25,25)" stroke-width="1" opacity="1" d="M 59.5 42 L 57.5 45 L 59.5 42 Z " /><path fill="rgb(25,25,25)" stroke="rgb(25,25,25)" stroke-width="1" opacity="1" d="M 42.5 48 L 40.5 51 L 42.5 48 Z " /><path fill="rgb(25,25,25)" stroke="rgb(25,25,25)" stroke-width="1" opacity="1" d="M 57.5 48 L 59.5 51 L 57.5 48 Z " /><path fill="rgb(25,25,25)" stroke="rgb(25,25,25)" stroke-width="1" opacity="1" d="M 39.5 52 L 37.5 55 L 39.5 52 Z " /><path fill="rgb(25,25,25)" stroke="rgb(25,25,25)" stroke-width="1" opacity="1" d="M 60.5 52 L 62.5 55 L 60.5 52 Z " /><path fill="rgb(25,25,25)" stroke="rgb(25,25,25)" stroke-width="1" opacity="1" d="M 49.5 54 L 52 55.5 L 50.5 55 L 48.5 56 L 49.5 54 Z " /><path fill="rgb(25,25,25)" stroke="rgb(25,25,25)" stroke-width="1" opacity="1" d="M 36.5 56 L 34.5 59 L 36.5 56 Z " /><path fill="rgb(25,25,25)" stroke="rgb(25,25,25)" stroke-width="1" opacity="1" d="M 63.5 56 L 65.5 59 L 63.5 56 Z " /><path fill="rgb(25,25,25)" stroke="rgb(25,25,25)" stroke-width="1" opacity="1" d="M 47.5 57 L 46.5 59 L 47.5 57 Z " /><path fill="rgb(25,25,25)" stroke="rgb(25,25,25)" stroke-width="1" opacity="1" d="M 52.5 57 L 53.5 59 L 52.5 57 Z " /><path fill="rgb(25,25,25)" stroke="rgb(25,25,25)" stroke-width="1" opacity="1" d="M 33.5 60 L 31.5 63 L 33.5 60 Z " /><path fill="rgb(25,25,25)" stroke="rgb(25,25,25)" stroke-width="1" opacity="1" d="M 45.5 60 L 43.5 63 L 45.5 60 Z " /><path fill="rgb(25,25,25)" stroke="rgb(25,25,25)" stroke-width="1" opacity="1" d="M 54.5 60 L 56.5 63 L 54.5 60 Z " /><path fill="rgb(25,25,25)" stroke="rgb(25,25,25)" stroke-width="1" opacity="1" d="M 66.5 60 L 68.5 63 L 66.5 60 Z " /><path fill="rgb(25,25,25)" stroke="rgb(25,25,25)" stroke-width="1" opacity="1" d="M 30.5 64 L 28.5 67 L 30.5 64 Z " /><path fill="rgb(25,25,25)" stroke="rgb(25,25,25)" stroke-width="1" opacity="1" d="M 42.5 64 L 41.5 66 L 42.5 64 Z " /><path fill="rgb(25,25,25)" stroke="rgb(25,25,25)" stroke-width="1" opacity="1" d="M 57.5 64 L 58.5 66 L 57.5 64 Z " /><path fill="rgb(25,25,25)" stroke="rgb(25,25,25)" stroke-width="1" opacity="1" d="M 69.5 64 L 71.5 67 L 69.5 64 Z " /><path fill="rgb(25,25,25)" stroke="rgb(25,25,25)" stroke-width="1" opacity="1" d="M 40.5 67 L 39.5 69 L 40.5 67 Z " /><path fill="rgb(25,25,25)" stroke="rgb(25,25,25)" stroke-width="1" opacity="1" d="M 59.5 67 L 60.5 69 L 59.5 67 Z " /><path fill="rgb(25,25,25)" stroke="rgb(25,25,25)" stroke-width="1" opacity="1" d="M 27.5 68 L 25.5 71 L 27.5 68 Z " /><path fill="rgb(25,25,25)" stroke="rgb(25,25,25)" stroke-width="1" opacity="1" d="M 72.5 68 L 74.5 71 L 72.5 68 Z " /><path fill="rgb(25,25,25)" stroke="rgb(25,25,25)" stroke-width="1" opacity="1" d="M 38.5 70 L 36.5 73 L 38.5 70 Z " /><path fill="rgb(25,25,25)" stroke="rgb(25,25,25)" stroke-width="1" opacity="1" d="M 61.5 70 L 63.5 73 L 61.5 70 Z " /><path fill="rgb(25,25,25)" stroke="rgb(25,25,25)" stroke-width="1" opacity="1" d="M 24.5 72 L 22.5 75 L 24.5 72 Z " /><path fill="rgb(25,25,25)" stroke="rgb(25,25,25)" stroke-width="1" opacity="1" d="M 75.5 72 L 77.5 75 L 75.5 72 Z " /><path fill="rgb(21,21,21)" stroke="rgb(21,21,21)" stroke-width="1" opacity="1" d="M 25.5 22 L 36.5 22 L 39 24.5 L 49.5 39 L 52 37.5 L 63.5 22 L 75 22.5 L 56 46.5 L 77 74.5 L 65.5 75 L 50.5 54 L 48 55.5 L 34.5 75 L 23 74.5 L 44 46.5 L 25.5 22 Z " /></svg>