<?xml version="1.0" encoding="UTF-8"?>
<svg xmlns="http://www.w3.org/2000/svg" xmlns:xlink="http://www.w3.org/1999/xlink" width="16px" height="16px" viewBox="0 0 16 16" version="1.1">
<defs>
<filter id="alpha" filterUnits="objectBoundingBox" x="0%" y="0%" width="100%" height="100%">
  <feColorMatrix type="matrix" in="SourceGraphic" values="0 0 0 0 1 0 0 0 0 1 0 0 0 0 1 0 0 0 1 0"/>
</filter>
<mask id="mask0">
  <g filter="url(#alpha)">
<rect x="0" y="0" width="16" height="16" style="fill:rgb(0%,0%,0%);fill-opacity:0.992157;stroke:none;"/>
  </g>
</mask>
<clipPath id="clip1">
  <rect x="0" y="0" width="16" height="16"/>
</clipPath>
<g id="surface5" clip-path="url(#clip1)">
<path style="fill-rule:nonzero;fill:rgb(100%,100%,100%);fill-opacity:1;stroke-width:1;stroke-linecap:butt;stroke-linejoin:miter;stroke:rgb(100%,100%,100%);stroke-opacity:1;stroke-miterlimit:4;" d="M 12.5 0 L 18.994141 0.488281 L 13.500977 1.000977 L 5.004883 6.494141 C 1.928711 9.106445 0.439453 13.256836 0.488281 18.994141 L 0 12.5 L 8.496094 2.001953 Z M 12.5 0 " transform="matrix(0.16,0,0,0.16,0,0)"/>
</g>
<mask id="mask1">
  <g filter="url(#alpha)">
<rect x="0" y="0" width="16" height="16" style="fill:rgb(0%,0%,0%);fill-opacity:0.992157;stroke:none;"/>
  </g>
</mask>
<clipPath id="clip2">
  <rect x="0" y="0" width="16" height="16"/>
</clipPath>
<g id="surface8" clip-path="url(#clip2)">
<path style="fill-rule:nonzero;fill:rgb(100%,100%,100%);fill-opacity:1;stroke-width:1;stroke-linecap:butt;stroke-linejoin:miter;stroke:rgb(100%,100%,100%);stroke-opacity:1;stroke-miterlimit:4;" d="M 81.494141 0 C 89.770508 0.0732422 95.263672 2.905273 97.998047 8.496094 C 100 10.498047 100.65918 13.842773 100 18.505859 L 98.999023 18.505859 L 98.999023 13.500977 L 93.505859 5.004883 L 86.499023 1.000977 L 81.494141 1.000977 Z M 81.494141 0 " transform="matrix(0.16,0,0,0.16,0,0)"/>
</g>
<mask id="mask2">
  <g filter="url(#alpha)">
<rect x="0" y="0" width="16" height="16" style="fill:rgb(0%,0%,0%);fill-opacity:0.992157;stroke:none;"/>
  </g>
</mask>
<clipPath id="clip3">
  <rect x="0" y="0" width="16" height="16"/>
</clipPath>
<g id="surface11" clip-path="url(#clip3)">
<path style="fill-rule:nonzero;fill:rgb(100%,100%,100%);fill-opacity:1;stroke-width:1;stroke-linecap:butt;stroke-linejoin:miter;stroke:rgb(100%,100%,100%);stroke-opacity:1;stroke-miterlimit:4;" d="M 0.488281 81.005859 L 1.000977 86.499023 L 6.494141 94.995117 C 9.106445 98.071289 13.256836 99.560547 18.994141 99.511719 L 12.5 100 L 2.001953 91.503906 C -0.268555 89.160156 -0.756836 85.668945 0.488281 81.005859 Z M 0.488281 81.005859 " transform="matrix(0.16,0,0,0.16,0,0)"/>
</g>
<mask id="mask3">
  <g filter="url(#alpha)">
<rect x="0" y="0" width="16" height="16" style="fill:rgb(0%,0%,0%);fill-opacity:0.992157;stroke:none;"/>
  </g>
</mask>
<clipPath id="clip4">
  <rect x="0" y="0" width="16" height="16"/>
</clipPath>
<g id="surface14" clip-path="url(#clip4)">
<path style="fill-rule:nonzero;fill:rgb(100%,100%,100%);fill-opacity:1;stroke-width:1;stroke-linecap:butt;stroke-linejoin:miter;stroke:rgb(100%,100%,100%);stroke-opacity:1;stroke-miterlimit:4;" d="M 99.511719 81.005859 L 100 87.5 L 91.503906 97.998047 C 89.501953 100 86.157227 100.65918 81.494141 100 L 81.494141 98.999023 L 86.499023 98.999023 L 94.995117 93.505859 C 98.071289 90.893555 99.560547 86.743164 99.511719 81.005859 Z M 99.511719 81.005859 " transform="matrix(0.16,0,0,0.16,0,0)"/>
</g>
</defs>
<g id="surface1">
<path style="fill-rule:nonzero;fill:rgb(83.92157%,83.92157%,83.92157%);fill-opacity:1;stroke-width:1;stroke-linecap:butt;stroke-linejoin:miter;stroke:rgb(83.92157%,83.92157%,83.92157%);stroke-opacity:1;stroke-miterlimit:4;" d="M 23.999023 20.996094 L 37.011719 21.508789 L 25 22.509766 L 25.488281 23.999023 Z M 23.999023 20.996094 " transform="matrix(0.16,0,0,0.16,0,0)"/>
<path style="fill-rule:nonzero;fill:rgb(83.92157%,83.92157%,83.92157%);fill-opacity:1;stroke-width:1;stroke-linecap:butt;stroke-linejoin:miter;stroke:rgb(83.92157%,83.92157%,83.92157%);stroke-opacity:1;stroke-miterlimit:4;" d="M 63.500977 20.996094 L 75.488281 20.996094 L 76.000977 22.509766 L 73.999023 23.510742 L 74.511719 21.99707 L 63.500977 21.99707 Z M 63.500977 20.996094 " transform="matrix(0.16,0,0,0.16,0,0)"/>
<path style="fill-rule:nonzero;fill:rgb(83.92157%,83.92157%,83.92157%);fill-opacity:1;stroke-width:1;stroke-linecap:butt;stroke-linejoin:miter;stroke:rgb(83.92157%,83.92157%,83.92157%);stroke-opacity:1;stroke-miterlimit:4;" d="M 38.500977 22.998047 L 40.50293 26.000977 Z M 38.500977 22.998047 " transform="matrix(0.16,0,0,0.16,0,0)"/>
<path style="fill-rule:nonzero;fill:rgb(83.92157%,83.92157%,83.92157%);fill-opacity:1;stroke-width:1;stroke-linecap:butt;stroke-linejoin:miter;stroke:rgb(83.92157%,83.92157%,83.92157%);stroke-opacity:1;stroke-miterlimit:4;" d="M 61.499023 22.998047 L 59.49707 26.000977 Z M 61.499023 22.998047 " transform="matrix(0.16,0,0,0.16,0,0)"/>
<path style="fill-rule:nonzero;fill:rgb(83.92157%,83.92157%,83.92157%);fill-opacity:1;stroke-width:1;stroke-linecap:butt;stroke-linejoin:miter;stroke:rgb(83.92157%,83.92157%,83.92157%);stroke-opacity:1;stroke-miterlimit:4;" d="M 26.489258 25 L 28.491211 28.00293 Z M 26.489258 25 " transform="matrix(0.16,0,0,0.16,0,0)"/>
<path style="fill-rule:nonzero;fill:rgb(83.92157%,83.92157%,83.92157%);fill-opacity:1;stroke-width:1;stroke-linecap:butt;stroke-linejoin:miter;stroke:rgb(83.92157%,83.92157%,83.92157%);stroke-opacity:1;stroke-miterlimit:4;" d="M 73.510742 25 L 71.508789 28.00293 Z M 73.510742 25 " transform="matrix(0.16,0,0,0.16,0,0)"/>
<path style="fill-rule:nonzero;fill:rgb(83.92157%,83.92157%,83.92157%);fill-opacity:1;stroke-width:1;stroke-linecap:butt;stroke-linejoin:miter;stroke:rgb(83.92157%,83.92157%,83.92157%);stroke-opacity:1;stroke-miterlimit:4;" d="M 41.503906 27.001953 L 43.505859 30.004883 Z M 41.503906 27.001953 " transform="matrix(0.16,0,0,0.16,0,0)"/>
<path style="fill-rule:nonzero;fill:rgb(83.92157%,83.92157%,83.92157%);fill-opacity:1;stroke-width:1;stroke-linecap:butt;stroke-linejoin:miter;stroke:rgb(83.92157%,83.92157%,83.92157%);stroke-opacity:1;stroke-miterlimit:4;" d="M 58.496094 27.001953 L 56.494141 30.004883 Z M 58.496094 27.001953 " transform="matrix(0.16,0,0,0.16,0,0)"/>
<path style="fill-rule:nonzero;fill:rgb(83.92157%,83.92157%,83.92157%);fill-opacity:1;stroke-width:1;stroke-linecap:butt;stroke-linejoin:miter;stroke:rgb(83.92157%,83.92157%,83.92157%);stroke-opacity:1;stroke-miterlimit:4;" d="M 30.493164 30.004883 L 32.495117 33.007812 Z M 30.493164 30.004883 " transform="matrix(0.16,0,0,0.16,0,0)"/>
<path style="fill-rule:nonzero;fill:rgb(83.92157%,83.92157%,83.92157%);fill-opacity:1;stroke-width:1;stroke-linecap:butt;stroke-linejoin:miter;stroke:rgb(83.92157%,83.92157%,83.92157%);stroke-opacity:1;stroke-miterlimit:4;" d="M 69.506836 30.004883 L 67.504883 33.007812 Z M 69.506836 30.004883 " transform="matrix(0.16,0,0,0.16,0,0)"/>
<path style="fill-rule:nonzero;fill:rgb(83.92157%,83.92157%,83.92157%);fill-opacity:1;stroke-width:1;stroke-linecap:butt;stroke-linejoin:miter;stroke:rgb(83.92157%,83.92157%,83.92157%);stroke-opacity:1;stroke-miterlimit:4;" d="M 44.506836 31.005859 L 46.508789 34.008789 Z M 44.506836 31.005859 " transform="matrix(0.16,0,0,0.16,0,0)"/>
<path style="fill-rule:nonzero;fill:rgb(83.92157%,83.92157%,83.92157%);fill-opacity:1;stroke-width:1;stroke-linecap:butt;stroke-linejoin:miter;stroke:rgb(83.92157%,83.92157%,83.92157%);stroke-opacity:1;stroke-miterlimit:4;" d="M 55.493164 31.005859 L 53.491211 34.008789 Z M 55.493164 31.005859 " transform="matrix(0.16,0,0,0.16,0,0)"/>
<path style="fill-rule:nonzero;fill:rgb(83.92157%,83.92157%,83.92157%);fill-opacity:1;stroke-width:1;stroke-linecap:butt;stroke-linejoin:miter;stroke:rgb(83.92157%,83.92157%,83.92157%);stroke-opacity:1;stroke-miterlimit:4;" d="M 33.496094 34.008789 L 35.498047 37.011719 Z M 33.496094 34.008789 " transform="matrix(0.16,0,0,0.16,0,0)"/>
<path style="fill-rule:nonzero;fill:rgb(83.92157%,83.92157%,83.92157%);fill-opacity:1;stroke-width:1;stroke-linecap:butt;stroke-linejoin:miter;stroke:rgb(83.92157%,83.92157%,83.92157%);stroke-opacity:1;stroke-miterlimit:4;" d="M 66.503906 34.008789 L 64.501953 37.011719 Z M 66.503906 34.008789 " transform="matrix(0.16,0,0,0.16,0,0)"/>
<path style="fill-rule:nonzero;fill:rgb(83.92157%,83.92157%,83.92157%);fill-opacity:1;stroke-width:1;stroke-linecap:butt;stroke-linejoin:miter;stroke:rgb(83.92157%,83.92157%,83.92157%);stroke-opacity:1;stroke-miterlimit:4;" d="M 47.509766 35.009766 L 50.488281 37.011719 L 53.00293 35.498047 L 49.511719 37.988281 Z M 47.509766 35.009766 " transform="matrix(0.16,0,0,0.16,0,0)"/>
<path style="fill-rule:nonzero;fill:rgb(83.92157%,83.92157%,83.92157%);fill-opacity:1;stroke-width:1;stroke-linecap:butt;stroke-linejoin:miter;stroke:rgb(83.92157%,83.92157%,83.92157%);stroke-opacity:1;stroke-miterlimit:4;" d="M 37.5 38.989258 L 39.501953 41.992188 Z M 37.5 38.989258 " transform="matrix(0.16,0,0,0.16,0,0)"/>
<path style="fill-rule:nonzero;fill:rgb(83.92157%,83.92157%,83.92157%);fill-opacity:1;stroke-width:1;stroke-linecap:butt;stroke-linejoin:miter;stroke:rgb(83.92157%,83.92157%,83.92157%);stroke-opacity:1;stroke-miterlimit:4;" d="M 62.5 38.989258 L 60.498047 41.992188 Z M 62.5 38.989258 " transform="matrix(0.16,0,0,0.16,0,0)"/>
<path style="fill-rule:nonzero;fill:rgb(83.92157%,83.92157%,83.92157%);fill-opacity:1;stroke-width:1;stroke-linecap:butt;stroke-linejoin:miter;stroke:rgb(83.92157%,83.92157%,83.92157%);stroke-opacity:1;stroke-miterlimit:4;" d="M 40.50293 42.993164 L 42.504883 45.996094 Z M 40.50293 42.993164 " transform="matrix(0.16,0,0,0.16,0,0)"/>
<path style="fill-rule:nonzero;fill:rgb(83.92157%,83.92157%,83.92157%);fill-opacity:1;stroke-width:1;stroke-linecap:butt;stroke-linejoin:miter;stroke:rgb(83.92157%,83.92157%,83.92157%);stroke-opacity:1;stroke-miterlimit:4;" d="M 59.49707 42.993164 L 57.495117 45.996094 Z M 59.49707 42.993164 " transform="matrix(0.16,0,0,0.16,0,0)"/>
<path style="fill-rule:nonzero;fill:rgb(83.92157%,83.92157%,83.92157%);fill-opacity:1;stroke-width:1;stroke-linecap:butt;stroke-linejoin:miter;stroke:rgb(83.92157%,83.92157%,83.92157%);stroke-opacity:1;stroke-miterlimit:4;" d="M 42.504883 46.99707 L 41.503906 48.999023 Z M 42.504883 46.99707 " transform="matrix(0.16,0,0,0.16,0,0)"/>
<path style="fill-rule:nonzero;fill:rgb(83.92157%,83.92157%,83.92157%);fill-opacity:1;stroke-width:1;stroke-linecap:butt;stroke-linejoin:miter;stroke:rgb(83.92157%,83.92157%,83.92157%);stroke-opacity:1;stroke-miterlimit:4;" d="M 57.495117 46.99707 L 58.496094 48.999023 Z M 57.495117 46.99707 " transform="matrix(0.16,0,0,0.16,0,0)"/>
<path style="fill-rule:nonzero;fill:rgb(83.92157%,83.92157%,83.92157%);fill-opacity:1;stroke-width:1;stroke-linecap:butt;stroke-linejoin:miter;stroke:rgb(83.92157%,83.92157%,83.92157%);stroke-opacity:1;stroke-miterlimit:4;" d="M 39.501953 51.000977 L 38.500977 53.00293 Z M 39.501953 51.000977 " transform="matrix(0.16,0,0,0.16,0,0)"/>
<path style="fill-rule:nonzero;fill:rgb(83.92157%,83.92157%,83.92157%);fill-opacity:1;stroke-width:1;stroke-linecap:butt;stroke-linejoin:miter;stroke:rgb(83.92157%,83.92157%,83.92157%);stroke-opacity:1;stroke-miterlimit:4;" d="M 60.498047 51.000977 L 61.499023 53.00293 Z M 60.498047 51.000977 " transform="matrix(0.16,0,0,0.16,0,0)"/>
<path style="fill-rule:nonzero;fill:rgb(83.92157%,83.92157%,83.92157%);fill-opacity:1;stroke-width:1;stroke-linecap:butt;stroke-linejoin:miter;stroke:rgb(83.92157%,83.92157%,83.92157%);stroke-opacity:1;stroke-miterlimit:4;" d="M 36.499023 55.004883 L 35.498047 57.006836 Z M 36.499023 55.004883 " transform="matrix(0.16,0,0,0.16,0,0)"/>
<path style="fill-rule:nonzero;fill:rgb(83.92157%,83.92157%,83.92157%);fill-opacity:1;stroke-width:1;stroke-linecap:butt;stroke-linejoin:miter;stroke:rgb(83.92157%,83.92157%,83.92157%);stroke-opacity:1;stroke-miterlimit:4;" d="M 49.511719 55.004883 L 52.001953 56.494141 L 50.488281 56.005859 L 48.510742 57.006836 Z M 49.511719 55.004883 " transform="matrix(0.16,0,0,0.16,0,0)"/>
<path style="fill-rule:nonzero;fill:rgb(83.92157%,83.92157%,83.92157%);fill-opacity:1;stroke-width:1;stroke-linecap:butt;stroke-linejoin:miter;stroke:rgb(83.92157%,83.92157%,83.92157%);stroke-opacity:1;stroke-miterlimit:4;" d="M 63.500977 55.004883 L 64.501953 57.006836 Z M 63.500977 55.004883 " transform="matrix(0.16,0,0,0.16,0,0)"/>
<path style="fill-rule:nonzero;fill:rgb(83.92157%,83.92157%,83.92157%);fill-opacity:1;stroke-width:1;stroke-linecap:butt;stroke-linejoin:miter;stroke:rgb(83.92157%,83.92157%,83.92157%);stroke-opacity:1;stroke-miterlimit:4;" d="M 47.509766 58.007812 L 46.508789 60.009766 Z M 47.509766 58.007812 " transform="matrix(0.16,0,0,0.16,0,0)"/>
<path style="fill-rule:nonzero;fill:rgb(83.92157%,83.92157%,83.92157%);fill-opacity:1;stroke-width:1;stroke-linecap:butt;stroke-linejoin:miter;stroke:rgb(83.92157%,83.92157%,83.92157%);stroke-opacity:1;stroke-miterlimit:4;" d="M 52.490234 58.007812 L 53.491211 60.009766 Z M 52.490234 58.007812 " transform="matrix(0.16,0,0,0.16,0,0)"/>
<path style="fill-rule:nonzero;fill:rgb(83.92157%,83.92157%,83.92157%);fill-opacity:1;stroke-width:1;stroke-linecap:butt;stroke-linejoin:miter;stroke:rgb(83.92157%,83.92157%,83.92157%);stroke-opacity:1;stroke-miterlimit:4;" d="M 33.496094 59.008789 L 32.495117 61.010742 Z M 33.496094 59.008789 " transform="matrix(0.16,0,0,0.16,0,0)"/>
<path style="fill-rule:nonzero;fill:rgb(83.92157%,83.92157%,83.92157%);fill-opacity:1;stroke-width:1;stroke-linecap:butt;stroke-linejoin:miter;stroke:rgb(83.92157%,83.92157%,83.92157%);stroke-opacity:1;stroke-miterlimit:4;" d="M 66.503906 59.008789 L 67.504883 61.010742 Z M 66.503906 59.008789 " transform="matrix(0.16,0,0,0.16,0,0)"/>
<path style="fill-rule:nonzero;fill:rgb(83.92157%,83.92157%,83.92157%);fill-opacity:1;stroke-width:1;stroke-linecap:butt;stroke-linejoin:miter;stroke:rgb(83.92157%,83.92157%,83.92157%);stroke-opacity:1;stroke-miterlimit:4;" d="M 44.506836 62.011719 L 43.505859 63.989258 Z M 44.506836 62.011719 " transform="matrix(0.16,0,0,0.16,0,0)"/>
<path style="fill-rule:nonzero;fill:rgb(83.92157%,83.92157%,83.92157%);fill-opacity:1;stroke-width:1;stroke-linecap:butt;stroke-linejoin:miter;stroke:rgb(83.92157%,83.92157%,83.92157%);stroke-opacity:1;stroke-miterlimit:4;" d="M 55.493164 62.011719 L 56.494141 63.989258 Z M 55.493164 62.011719 " transform="matrix(0.16,0,0,0.16,0,0)"/>
<path style="fill-rule:nonzero;fill:rgb(83.92157%,83.92157%,83.92157%);fill-opacity:1;stroke-width:1;stroke-linecap:butt;stroke-linejoin:miter;stroke:rgb(83.92157%,83.92157%,83.92157%);stroke-opacity:1;stroke-miterlimit:4;" d="M 30.493164 62.988281 L 29.492188 64.990234 Z M 30.493164 62.988281 " transform="matrix(0.16,0,0,0.16,0,0)"/>
<path style="fill-rule:nonzero;fill:rgb(83.92157%,83.92157%,83.92157%);fill-opacity:1;stroke-width:1;stroke-linecap:butt;stroke-linejoin:miter;stroke:rgb(83.92157%,83.92157%,83.92157%);stroke-opacity:1;stroke-miterlimit:4;" d="M 69.506836 62.988281 L 70.507812 64.990234 Z M 69.506836 62.988281 " transform="matrix(0.16,0,0,0.16,0,0)"/>
<path style="fill-rule:nonzero;fill:rgb(83.92157%,83.92157%,83.92157%);fill-opacity:1;stroke-width:1;stroke-linecap:butt;stroke-linejoin:miter;stroke:rgb(83.92157%,83.92157%,83.92157%);stroke-opacity:1;stroke-miterlimit:4;" d="M 42.504883 64.990234 L 41.503906 66.992188 Z M 42.504883 64.990234 " transform="matrix(0.16,0,0,0.16,0,0)"/>
<path style="fill-rule:nonzero;fill:rgb(83.92157%,83.92157%,83.92157%);fill-opacity:1;stroke-width:1;stroke-linecap:butt;stroke-linejoin:miter;stroke:rgb(83.92157%,83.92157%,83.92157%);stroke-opacity:1;stroke-miterlimit:4;" d="M 57.495117 64.990234 L 58.496094 66.992188 Z M 57.495117 64.990234 " transform="matrix(0.16,0,0,0.16,0,0)"/>
<path style="fill-rule:nonzero;fill:rgb(83.92157%,83.92157%,83.92157%);fill-opacity:1;stroke-width:1;stroke-linecap:butt;stroke-linejoin:miter;stroke:rgb(83.92157%,83.92157%,83.92157%);stroke-opacity:1;stroke-miterlimit:4;" d="M 27.490234 66.992188 L 26.489258 68.994141 Z M 27.490234 66.992188 " transform="matrix(0.16,0,0,0.16,0,0)"/>
<path style="fill-rule:nonzero;fill:rgb(83.92157%,83.92157%,83.92157%);fill-opacity:1;stroke-width:1;stroke-linecap:butt;stroke-linejoin:miter;stroke:rgb(83.92157%,83.92157%,83.92157%);stroke-opacity:1;stroke-miterlimit:4;" d="M 72.509766 66.992188 L 73.510742 68.994141 Z M 72.509766 66.992188 " transform="matrix(0.16,0,0,0.16,0,0)"/>
<path style="fill-rule:nonzero;fill:rgb(83.92157%,83.92157%,83.92157%);fill-opacity:1;stroke-width:1;stroke-linecap:butt;stroke-linejoin:miter;stroke:rgb(83.92157%,83.92157%,83.92157%);stroke-opacity:1;stroke-miterlimit:4;" d="M 40.50293 67.993164 L 39.501953 69.995117 Z M 40.50293 67.993164 " transform="matrix(0.16,0,0,0.16,0,0)"/>
<path style="fill-rule:nonzero;fill:rgb(83.92157%,83.92157%,83.92157%);fill-opacity:1;stroke-width:1;stroke-linecap:butt;stroke-linejoin:miter;stroke:rgb(83.92157%,83.92157%,83.92157%);stroke-opacity:1;stroke-miterlimit:4;" d="M 24.511719 70.996094 L 23.510742 72.998047 Z M 24.511719 70.996094 " transform="matrix(0.16,0,0,0.16,0,0)"/>
<path style="fill-rule:nonzero;fill:rgb(83.92157%,83.92157%,83.92157%);fill-opacity:1;stroke-width:1;stroke-linecap:butt;stroke-linejoin:miter;stroke:rgb(83.92157%,83.92157%,83.92157%);stroke-opacity:1;stroke-miterlimit:4;" d="M 75.488281 70.996094 L 77.490234 73.999023 Z M 75.488281 70.996094 " transform="matrix(0.16,0,0,0.16,0,0)"/>
<path style="fill-rule:nonzero;fill:rgb(83.92157%,83.92157%,83.92157%);fill-opacity:1;stroke-width:1;stroke-linecap:butt;stroke-linejoin:miter;stroke:rgb(83.92157%,83.92157%,83.92157%);stroke-opacity:1;stroke-miterlimit:4;" d="M 37.5 71.99707 L 36.499023 73.999023 Z M 37.5 71.99707 " transform="matrix(0.16,0,0,0.16,0,0)"/>
<path style="fill-rule:nonzero;fill:rgb(83.92157%,83.92157%,83.92157%);fill-opacity:1;stroke-width:1;stroke-linecap:butt;stroke-linejoin:miter;stroke:rgb(83.92157%,83.92157%,83.92157%);stroke-opacity:1;stroke-miterlimit:4;" d="M 62.5 71.99707 L 63.500977 73.999023 Z M 62.5 71.99707 " transform="matrix(0.16,0,0,0.16,0,0)"/>
<use xlink:href="#surface5" mask="url(#mask0)"/>
<use xlink:href="#surface8" mask="url(#mask1)"/>
<use xlink:href="#surface11" mask="url(#mask2)"/>
<use xlink:href="#surface14" mask="url(#mask3)"/>
<path style="fill-rule:nonzero;fill:rgb(100%,100%,100%);fill-opacity:1;stroke-width:1;stroke-linecap:butt;stroke-linejoin:miter;stroke:rgb(100%,100%,100%);stroke-opacity:1;stroke-miterlimit:4;" d="M 19.506836 0 L 80.493164 0 C 81.37207 1.538086 83.374023 1.855469 86.499023 1.000977 L 94.995117 6.494141 L 98.999023 13.500977 C 98.144531 16.625977 98.461914 18.62793 100 19.506836 L 100 80.493164 C 98.461914 81.37207 98.144531 83.374023 98.999023 86.499023 L 93.505859 94.995117 L 86.499023 98.999023 C 83.374023 98.144531 81.37207 98.461914 80.493164 100 L 19.506836 100 C 18.62793 98.461914 16.625977 98.144531 13.500977 98.999023 L 5.004883 93.505859 L 1.000977 86.499023 C 1.855469 83.374023 1.538086 81.37207 0 80.493164 L 0 19.506836 C 1.538086 18.62793 1.855469 16.625977 1.000977 13.500977 L 6.494141 5.004883 L 13.500977 1.000977 C 16.625977 1.855469 18.62793 1.538086 19.506836 0 Z M 23.999023 20.996094 L 26.000977 26.000977 L 42.993164 46.99707 L 21.99707 75 L 36.010742 75 L 47.998047 58.007812 L 51.000977 56.005859 L 62.011719 72.998047 L 64.990234 75 L 78.00293 75 L 57.006836 46.99707 L 76.000977 22.998047 L 76.000977 20.996094 L 63.989258 20.996094 L 53.00293 35.009766 L 50 37.011719 L 40.991211 26.000977 L 37.011719 20.996094 Z M 23.999023 20.996094 " transform="matrix(0.16,0,0,0.16,0,0)"/>
<path style="fill-rule:nonzero;fill:rgb(9.803922%,9.803922%,9.803922%);fill-opacity:1;stroke-width:1;stroke-linecap:butt;stroke-linejoin:miter;stroke:rgb(9.803922%,9.803922%,9.803922%);stroke-opacity:1;stroke-miterlimit:4;" d="M 26.489258 23.999023 L 28.491211 27.001953 Z M 26.489258 23.999023 " transform="matrix(0.16,0,0,0.16,0,0)"/>
<path style="fill-rule:nonzero;fill:rgb(9.803922%,9.803922%,9.803922%);fill-opacity:1;stroke-width:1;stroke-linecap:butt;stroke-linejoin:miter;stroke:rgb(9.803922%,9.803922%,9.803922%);stroke-opacity:1;stroke-miterlimit:4;" d="M 61.499023 23.999023 L 59.49707 27.001953 Z M 61.499023 23.999023 " transform="matrix(0.16,0,0,0.16,0,0)"/>
<path style="fill-rule:nonzero;fill:rgb(9.803922%,9.803922%,9.803922%);fill-opacity:1;stroke-width:1;stroke-linecap:butt;stroke-linejoin:miter;stroke:rgb(9.803922%,9.803922%,9.803922%);stroke-opacity:1;stroke-miterlimit:4;" d="M 73.510742 23.999023 L 71.508789 27.001953 Z M 73.510742 23.999023 " transform="matrix(0.16,0,0,0.16,0,0)"/>
<path style="fill-rule:nonzero;fill:rgb(9.803922%,9.803922%,9.803922%);fill-opacity:1;stroke-width:1;stroke-linecap:butt;stroke-linejoin:miter;stroke:rgb(9.803922%,9.803922%,9.803922%);stroke-opacity:1;stroke-miterlimit:4;" d="M 39.501953 25 L 40.50293 27.001953 Z M 39.501953 25 " transform="matrix(0.16,0,0,0.16,0,0)"/>
<path style="fill-rule:nonzero;fill:rgb(9.803922%,9.803922%,9.803922%);fill-opacity:1;stroke-width:1;stroke-linecap:butt;stroke-linejoin:miter;stroke:rgb(9.803922%,9.803922%,9.803922%);stroke-opacity:1;stroke-miterlimit:4;" d="M 29.492188 28.00293 L 31.494141 31.005859 Z M 29.492188 28.00293 " transform="matrix(0.16,0,0,0.16,0,0)"/>
<path style="fill-rule:nonzero;fill:rgb(9.803922%,9.803922%,9.803922%);fill-opacity:1;stroke-width:1;stroke-linecap:butt;stroke-linejoin:miter;stroke:rgb(9.803922%,9.803922%,9.803922%);stroke-opacity:1;stroke-miterlimit:4;" d="M 70.507812 28.00293 L 68.505859 31.005859 Z M 70.507812 28.00293 " transform="matrix(0.16,0,0,0.16,0,0)"/>
<path style="fill-rule:nonzero;fill:rgb(9.803922%,9.803922%,9.803922%);fill-opacity:1;stroke-width:1;stroke-linecap:butt;stroke-linejoin:miter;stroke:rgb(9.803922%,9.803922%,9.803922%);stroke-opacity:1;stroke-miterlimit:4;" d="M 42.504883 29.003906 L 43.505859 31.005859 Z M 42.504883 29.003906 " transform="matrix(0.16,0,0,0.16,0,0)"/>
<path style="fill-rule:nonzero;fill:rgb(9.803922%,9.803922%,9.803922%);fill-opacity:1;stroke-width:1;stroke-linecap:butt;stroke-linejoin:miter;stroke:rgb(9.803922%,9.803922%,9.803922%);stroke-opacity:1;stroke-miterlimit:4;" d="M 57.495117 29.003906 L 56.494141 31.005859 Z M 57.495117 29.003906 " transform="matrix(0.16,0,0,0.16,0,0)"/>
<path style="fill-rule:nonzero;fill:rgb(9.803922%,9.803922%,9.803922%);fill-opacity:1;stroke-width:1;stroke-linecap:butt;stroke-linejoin:miter;stroke:rgb(9.803922%,9.803922%,9.803922%);stroke-opacity:1;stroke-miterlimit:4;" d="M 33.496094 33.007812 L 35.498047 36.010742 Z M 33.496094 33.007812 " transform="matrix(0.16,0,0,0.16,0,0)"/>
<path style="fill-rule:nonzero;fill:rgb(9.803922%,9.803922%,9.803922%);fill-opacity:1;stroke-width:1;stroke-linecap:butt;stroke-linejoin:miter;stroke:rgb(9.803922%,9.803922%,9.803922%);stroke-opacity:1;stroke-miterlimit:4;" d="M 45.507812 33.007812 L 46.508789 35.009766 Z M 45.507812 33.007812 " transform="matrix(0.16,0,0,0.16,0,0)"/>
<path style="fill-rule:nonzero;fill:rgb(9.803922%,9.803922%,9.803922%);fill-opacity:1;stroke-width:1;stroke-linecap:butt;stroke-linejoin:miter;stroke:rgb(9.803922%,9.803922%,9.803922%);stroke-opacity:1;stroke-miterlimit:4;" d="M 54.492188 33.007812 L 53.491211 35.009766 Z M 54.492188 33.007812 " transform="matrix(0.16,0,0,0.16,0,0)"/>
<path style="fill-rule:nonzero;fill:rgb(9.803922%,9.803922%,9.803922%);fill-opacity:1;stroke-width:1;stroke-linecap:butt;stroke-linejoin:miter;stroke:rgb(9.803922%,9.803922%,9.803922%);stroke-opacity:1;stroke-miterlimit:4;" d="M 66.503906 33.007812 L 64.501953 36.010742 Z M 66.503906 33.007812 " transform="matrix(0.16,0,0,0.16,0,0)"/>
<path style="fill-rule:nonzero;fill:rgb(9.803922%,9.803922%,9.803922%);fill-opacity:1;stroke-width:1;stroke-linecap:butt;stroke-linejoin:miter;stroke:rgb(9.803922%,9.803922%,9.803922%);stroke-opacity:1;stroke-miterlimit:4;" d="M 36.499023 37.011719 L 38.500977 39.990234 Z M 36.499023 37.011719 " transform="matrix(0.16,0,0,0.16,0,0)"/>
<path style="fill-rule:nonzero;fill:rgb(9.803922%,9.803922%,9.803922%);fill-opacity:1;stroke-width:1;stroke-linecap:butt;stroke-linejoin:miter;stroke:rgb(9.803922%,9.803922%,9.803922%);stroke-opacity:1;stroke-miterlimit:4;" d="M 48.510742 37.011719 L 50.488281 37.988281 L 52.001953 37.5 L 49.511719 38.989258 Z M 48.510742 37.011719 " transform="matrix(0.16,0,0,0.16,0,0)"/>
<path style="fill-rule:nonzero;fill:rgb(9.803922%,9.803922%,9.803922%);fill-opacity:1;stroke-width:1;stroke-linecap:butt;stroke-linejoin:miter;stroke:rgb(9.803922%,9.803922%,9.803922%);stroke-opacity:1;stroke-miterlimit:4;" d="M 63.500977 37.011719 L 61.499023 39.990234 Z M 63.500977 37.011719 " transform="matrix(0.16,0,0,0.16,0,0)"/>
<path style="fill-rule:nonzero;fill:rgb(9.803922%,9.803922%,9.803922%);fill-opacity:1;stroke-width:1;stroke-linecap:butt;stroke-linejoin:miter;stroke:rgb(9.803922%,9.803922%,9.803922%);stroke-opacity:1;stroke-miterlimit:4;" d="M 40.50293 41.992188 L 42.504883 44.995117 Z M 40.50293 41.992188 " transform="matrix(0.16,0,0,0.16,0,0)"/>
<path style="fill-rule:nonzero;fill:rgb(9.803922%,9.803922%,9.803922%);fill-opacity:1;stroke-width:1;stroke-linecap:butt;stroke-linejoin:miter;stroke:rgb(9.803922%,9.803922%,9.803922%);stroke-opacity:1;stroke-miterlimit:4;" d="M 59.49707 41.992188 L 57.495117 44.995117 Z M 59.49707 41.992188 " transform="matrix(0.16,0,0,0.16,0,0)"/>
<path style="fill-rule:nonzero;fill:rgb(9.803922%,9.803922%,9.803922%);fill-opacity:1;stroke-width:1;stroke-linecap:butt;stroke-linejoin:miter;stroke:rgb(9.803922%,9.803922%,9.803922%);stroke-opacity:1;stroke-miterlimit:4;" d="M 42.504883 47.998047 L 40.50293 51.000977 Z M 42.504883 47.998047 " transform="matrix(0.16,0,0,0.16,0,0)"/>
<path style="fill-rule:nonzero;fill:rgb(9.803922%,9.803922%,9.803922%);fill-opacity:1;stroke-width:1;stroke-linecap:butt;stroke-linejoin:miter;stroke:rgb(9.803922%,9.803922%,9.803922%);stroke-opacity:1;stroke-miterlimit:4;" d="M 57.495117 47.998047 L 59.49707 51.000977 Z M 57.495117 47.998047 " transform="matrix(0.16,0,0,0.16,0,0)"/>
<path style="fill-rule:nonzero;fill:rgb(9.803922%,9.803922%,9.803922%);fill-opacity:1;stroke-width:1;stroke-linecap:butt;stroke-linejoin:miter;stroke:rgb(9.803922%,9.803922%,9.803922%);stroke-opacity:1;stroke-miterlimit:4;" d="M 39.501953 52.001953 L 37.5 55.004883 Z M 39.501953 52.001953 " transform="matrix(0.16,0,0,0.16,0,0)"/>
<path style="fill-rule:nonzero;fill:rgb(9.803922%,9.803922%,9.803922%);fill-opacity:1;stroke-width:1;stroke-linecap:butt;stroke-linejoin:miter;stroke:rgb(9.803922%,9.803922%,9.803922%);stroke-opacity:1;stroke-miterlimit:4;" d="M 60.498047 52.001953 L 62.5 55.004883 Z M 60.498047 52.001953 " transform="matrix(0.16,0,0,0.16,0,0)"/>
<path style="fill-rule:nonzero;fill:rgb(9.803922%,9.803922%,9.803922%);fill-opacity:1;stroke-width:1;stroke-linecap:butt;stroke-linejoin:miter;stroke:rgb(9.803922%,9.803922%,9.803922%);stroke-opacity:1;stroke-miterlimit:4;" d="M 49.511719 54.003906 L 52.001953 55.493164 L 50.488281 55.004883 L 48.510742 56.005859 Z M 49.511719 54.003906 " transform="matrix(0.16,0,0,0.16,0,0)"/>
<path style="fill-rule:nonzero;fill:rgb(9.803922%,9.803922%,9.803922%);fill-opacity:1;stroke-width:1;stroke-linecap:butt;stroke-linejoin:miter;stroke:rgb(9.803922%,9.803922%,9.803922%);stroke-opacity:1;stroke-miterlimit:4;" d="M 36.499023 56.005859 L 34.49707 59.008789 Z M 36.499023 56.005859 " transform="matrix(0.16,0,0,0.16,0,0)"/>
<path style="fill-rule:nonzero;fill:rgb(9.803922%,9.803922%,9.803922%);fill-opacity:1;stroke-width:1;stroke-linecap:butt;stroke-linejoin:miter;stroke:rgb(9.803922%,9.803922%,9.803922%);stroke-opacity:1;stroke-miterlimit:4;" d="M 63.500977 56.005859 L 65.50293 59.008789 Z M 63.500977 56.005859 " transform="matrix(0.16,0,0,0.16,0,0)"/>
<path style="fill-rule:nonzero;fill:rgb(9.803922%,9.803922%,9.803922%);fill-opacity:1;stroke-width:1;stroke-linecap:butt;stroke-linejoin:miter;stroke:rgb(9.803922%,9.803922%,9.803922%);stroke-opacity:1;stroke-miterlimit:4;" d="M 47.509766 57.006836 L 46.508789 59.008789 Z M 47.509766 57.006836 " transform="matrix(0.16,0,0,0.16,0,0)"/>
<path style="fill-rule:nonzero;fill:rgb(9.803922%,9.803922%,9.803922%);fill-opacity:1;stroke-width:1;stroke-linecap:butt;stroke-linejoin:miter;stroke:rgb(9.803922%,9.803922%,9.803922%);stroke-opacity:1;stroke-miterlimit:4;" d="M 52.490234 57.006836 L 53.491211 59.008789 Z M 52.490234 57.006836 " transform="matrix(0.16,0,0,0.16,0,0)"/>
<path style="fill-rule:nonzero;fill:rgb(9.803922%,9.803922%,9.803922%);fill-opacity:1;stroke-width:1;stroke-linecap:butt;stroke-linejoin:miter;stroke:rgb(9.803922%,9.803922%,9.803922%);stroke-opacity:1;stroke-miterlimit:4;" d="M 33.496094 60.009766 L 31.494141 62.988281 Z M 33.496094 60.009766 " transform="matrix(0.16,0,0,0.16,0,0)"/>
<path style="fill-rule:nonzero;fill:rgb(9.803922%,9.803922%,9.803922%);fill-opacity:1;stroke-width:1;stroke-linecap:butt;stroke-linejoin:miter;stroke:rgb(9.803922%,9.803922%,9.803922%);stroke-opacity:1;stroke-miterlimit:4;" d="M 45.507812 60.009766 L 43.505859 62.988281 Z M 45.507812 60.009766 " transform="matrix(0.16,0,0,0.16,0,0)"/>
<path style="fill-rule:nonzero;fill:rgb(9.803922%,9.803922%,9.803922%);fill-opacity:1;stroke-width:1;stroke-linecap:butt;stroke-linejoin:miter;stroke:rgb(9.803922%,9.803922%,9.803922%);stroke-opacity:1;stroke-miterlimit:4;" d="M 54.492188 60.009766 L 56.494141 62.988281 Z M 54.492188 60.009766 " transform="matrix(0.16,0,0,0.16,0,0)"/>
<path style="fill-rule:nonzero;fill:rgb(9.803922%,9.803922%,9.803922%);fill-opacity:1;stroke-width:1;stroke-linecap:butt;stroke-linejoin:miter;stroke:rgb(9.803922%,9.803922%,9.803922%);stroke-opacity:1;stroke-miterlimit:4;" d="M 66.503906 60.009766 L 68.505859 62.988281 Z M 66.503906 60.009766 " transform="matrix(0.16,0,0,0.16,0,0)"/>
<path style="fill-rule:nonzero;fill:rgb(9.803922%,9.803922%,9.803922%);fill-opacity:1;stroke-width:1;stroke-linecap:butt;stroke-linejoin:miter;stroke:rgb(9.803922%,9.803922%,9.803922%);stroke-opacity:1;stroke-miterlimit:4;" d="M 30.493164 63.989258 L 28.491211 66.992188 Z M 30.493164 63.989258 " transform="matrix(0.16,0,0,0.16,0,0)"/>
<path style="fill-rule:nonzero;fill:rgb(9.803922%,9.803922%,9.803922%);fill-opacity:1;stroke-width:1;stroke-linecap:butt;stroke-linejoin:miter;stroke:rgb(9.803922%,9.803922%,9.803922%);stroke-opacity:1;stroke-miterlimit:4;" d="M 42.504883 63.989258 L 41.503906 65.991211 Z M 42.504883 63.989258 " transform="matrix(0.16,0,0,0.16,0,0)"/>
<path style="fill-rule:nonzero;fill:rgb(9.803922%,9.803922%,9.803922%);fill-opacity:1;stroke-width:1;stroke-linecap:butt;stroke-linejoin:miter;stroke:rgb(9.803922%,9.803922%,9.803922%);stroke-opacity:1;stroke-miterlimit:4;" d="M 57.495117 63.989258 L 58.496094 65.991211 Z M 57.495117 63.989258 " transform="matrix(0.16,0,0,0.16,0,0)"/>
<path style="fill-rule:nonzero;fill:rgb(9.803922%,9.803922%,9.803922%);fill-opacity:1;stroke-width:1;stroke-linecap:butt;stroke-linejoin:miter;stroke:rgb(9.803922%,9.803922%,9.803922%);stroke-opacity:1;stroke-miterlimit:4;" d="M 69.506836 63.989258 L 71.508789 66.992188 Z M 69.506836 63.989258 " transform="matrix(0.16,0,0,0.16,0,0)"/>
<path style="fill-rule:nonzero;fill:rgb(9.803922%,9.803922%,9.803922%);fill-opacity:1;stroke-width:1;stroke-linecap:butt;stroke-linejoin:miter;stroke:rgb(9.803922%,9.803922%,9.803922%);stroke-opacity:1;stroke-miterlimit:4;" d="M 40.50293 66.992188 L 39.501953 68.994141 Z M 40.50293 66.992188 " transform="matrix(0.16,0,0,0.16,0,0)"/>
<path style="fill-rule:nonzero;fill:rgb(9.803922%,9.803922%,9.803922%);fill-opacity:1;stroke-width:1;stroke-linecap:butt;stroke-linejoin:miter;stroke:rgb(9.803922%,9.803922%,9.803922%);stroke-opacity:1;stroke-miterlimit:4;" d="M 59.49707 66.992188 L 60.498047 68.994141 Z M 59.49707 66.992188 " transform="matrix(0.16,0,0,0.16,0,0)"/>
<path style="fill-rule:nonzero;fill:rgb(9.803922%,9.803922%,9.803922%);fill-opacity:1;stroke-width:1;stroke-linecap:butt;stroke-linejoin:miter;stroke:rgb(9.803922%,9.803922%,9.803922%);stroke-opacity:1;stroke-miterlimit:4;" d="M 27.490234 67.993164 L 25.488281 70.996094 Z M 27.490234 67.993164 " transform="matrix(0.16,0,0,0.16,0,0)"/>
<path style="fill-rule:nonzero;fill:rgb(9.803922%,9.803922%,9.803922%);fill-opacity:1;stroke-width:1;stroke-linecap:butt;stroke-linejoin:miter;stroke:rgb(9.803922%,9.803922%,9.803922%);stroke-opacity:1;stroke-miterlimit:4;" d="M 72.509766 67.993164 L 74.511719 70.996094 Z M 72.509766 67.993164 " transform="matrix(0.16,0,0,0.16,0,0)"/>
<path style="fill-rule:nonzero;fill:rgb(9.803922%,9.803922%,9.803922%);fill-opacity:1;stroke-width:1;stroke-linecap:butt;stroke-linejoin:miter;stroke:rgb(9.803922%,9.803922%,9.803922%);stroke-opacity:1;stroke-miterlimit:4;" d="M 38.500977 69.995117 L 36.499023 72.998047 Z M 38.500977 69.995117 " transform="matrix(0.16,0,0,0.16,0,0)"/>
<path style="fill-rule:nonzero;fill:rgb(9.803922%,9.803922%,9.803922%);fill-opacity:1;stroke-width:1;stroke-linecap:butt;stroke-linejoin:miter;stroke:rgb(9.803922%,9.803922%,9.803922%);stroke-opacity:1;stroke-miterlimit:4;" d="M 61.499023 69.995117 L 63.500977 72.998047 Z M 61.499023 69.995117 " transform="matrix(0.16,0,0,0.16,0,0)"/>
<path style="fill-rule:nonzero;fill:rgb(9.803922%,9.803922%,9.803922%);fill-opacity:1;stroke-width:1;stroke-linecap:butt;stroke-linejoin:miter;stroke:rgb(9.803922%,9.803922%,9.803922%);stroke-opacity:1;stroke-miterlimit:4;" d="M 24.511719 71.99707 L 22.509766 75 Z M 24.511719 71.99707 " transform="matrix(0.16,0,0,0.16,0,0)"/>
<path style="fill-rule:nonzero;fill:rgb(9.803922%,9.803922%,9.803922%);fill-opacity:1;stroke-width:1;stroke-linecap:butt;stroke-linejoin:miter;stroke:rgb(9.803922%,9.803922%,9.803922%);stroke-opacity:1;stroke-miterlimit:4;" d="M 75.488281 71.99707 L 77.490234 75 Z M 75.488281 71.99707 " transform="matrix(0.16,0,0,0.16,0,0)"/>
<path style="fill-rule:nonzero;fill:rgb(8.235294%,8.235294%,8.235294%);fill-opacity:1;stroke-width:1;stroke-linecap:butt;stroke-linejoin:miter;stroke:rgb(8.235294%,8.235294%,8.235294%);stroke-opacity:1;stroke-miterlimit:4;" d="M 25.488281 21.99707 L 36.499023 21.99707 L 38.989258 24.511719 L 49.511719 38.989258 L 52.001953 37.5 L 63.500977 21.99707 L 75 22.509766 L 56.005859 46.508789 L 77.001953 74.511719 L 65.50293 75 L 50.488281 54.003906 L 47.998047 55.493164 L 34.49707 75 L 22.998047 74.511719 L 43.994141 46.508789 Z M 25.488281 21.99707 " transform="matrix(0.16,0,0,0.16,0,0)"/>
</g>
</svg>
