<?xml version="1.0" standalone="no"?>
<!DOCTYPE svg PUBLIC "-//W3C//DTD SVG 20010904//EN"
 "http://www.w3.org/TR/2001/REC-SVG-20010904/DTD/svg10.dtd">
<svg version="1.0" xmlns="http://www.w3.org/2000/svg"
 width="256.000000pt" height="256.000000pt" viewBox="0 0 256.000000 256.000000"
 preserveAspectRatio="xMidYMid meet">
<metadata>
Created by potrace 1.16, written by Peter Selinger 2001-2019
</metadata>
<g transform="translate(0.000000,256.000000) scale(0.100000,-0.100000)"
fill="#000000" stroke="none">
<path d="M823 2549 c-6 -6 -42 -13 -80 -16 -102 -6 -117 -11 -102 -29 18 -21
-7 -43 -57 -50 -80 -11 -83 -12 -81 -42 2 -22 -3 -28 -23 -30 -40 -5 -70 -24
-70 -44 0 -13 -17 -27 -58 -46 -51 -24 -60 -33 -84 -84 -19 -41 -33 -58 -46
-58 -20 0 -39 -30 -44 -70 -2 -20 -8 -25 -30 -23 -30 2 -31 -1 -42 -81 -7 -50
-29 -75 -50 -57 -18 15 -23 0 -29 -102 -3 -38 -10 -74 -16 -80 -16 -16 -16
-898 0 -914 6 -6 13 -42 16 -80 6 -102 11 -117 29 -102 21 18 43 -7 50 -57 11
-80 12 -83 42 -81 22 2 28 -3 30 -23 5 -40 24 -70 44 -70 13 0 27 -17 46 -58
24 -51 33 -60 84 -84 41 -19 58 -33 58 -46 0 -20 30 -39 70 -44 20 -2 25 -8
24 -28 -2 -30 11 -40 52 -40 42 0 94 -19 94 -34 0 -7 -5 -17 -11 -23 -15 -15
7 -20 104 -26 38 -3 74 -10 80 -16 16 -16 898 -16 914 0 6 6 42 13 80 16 102
6 117 11 102 29 -18 21 7 43 57 50 80 11 83 12 81 42 -2 22 3 28 23 30 40 5
70 24 70 44 0 13 17 27 58 46 51 24 60 33 84 84 19 41 33 58 46 58 20 0 39 30
44 70 2 20 8 25 30 23 30 -2 31 1 42 81 7 50 29 75 50 57 18 -15 23 0 29 102
3 38 10 74 16 80 16 16 16 898 0 914 -6 6 -13 42 -16 80 -6 102 -11 117 -29
102 -21 -18 -43 7 -50 57 -11 80 -12 83 -42 81 -22 -2 -28 3 -30 23 -5 40 -24
70 -44 70 -13 0 -27 17 -46 58 -24 51 -33 61 -80 82 -44 21 -53 29 -49 47 3
16 -2 23 -20 28 -14 3 -34 3 -44 0 -31 -10 -72 22 -66 51 4 25 1 27 -64 38
-46 8 -67 30 -49 51 14 17 -1 22 -103 28 -38 3 -74 10 -80 16 -8 8 -144 11
-457 11 -313 0 -449 -3 -457 -11z m731 -671 c38 -21 75 -38 81 -38 23 0 113
-104 149 -171 54 -104 57 -137 54 -607 l-3 -424 -28 -24 c-22 -19 -39 -24 -82
-24 -73 0 -100 15 -125 67 -27 58 -44 63 -83 25 -18 -18 -57 -40 -88 -51 -31
-10 -71 -27 -90 -37 -25 -13 -65 -19 -145 -22 -103 -4 -116 -3 -165 21 -30 13
-71 30 -92 37 -49 15 -120 77 -172 149 l-40 56 0 150 c0 133 2 153 20 181 11
17 30 47 43 67 13 20 39 46 58 57 19 12 34 26 34 30 0 16 42 32 160 62 96 25
144 31 291 37 240 9 259 22 199 133 -46 84 -95 124 -164 132 -59 8 -151 1
-201 -15 -18 -6 -53 -37 -89 -79 -33 -39 -68 -71 -78 -71 -10 -1 -45 -1 -78
-1 -102 0 -109 1 -126 26 -13 22 -14 33 -4 83 11 51 20 66 84 132 55 57 88 81
146 109 111 51 111 51 295 49 l170 -2 69 -37z"/>
<path d="M1183 1190 c-60 -9 -103 -33 -156 -88 -66 -68 -63 -147 8 -229 40
-45 53 -53 102 -63 96 -20 195 -2 284 52 83 50 95 69 129 191 23 84 20 111
-13 129 -26 15 -277 20 -354 8z"/>
</g>
</svg>
